<?xml version="1.0" standalone="no"?>
<!DOCTYPE svg PUBLIC "-//W3C//DTD SVG 20010904//EN"
 "http://www.w3.org/TR/2001/REC-SVG-20010904/DTD/svg10.dtd">
<svg version="1.0" xmlns="http://www.w3.org/2000/svg"
 width="200.000000pt" height="200.000000pt" viewBox="0 0 200.000000 200.000000"
 preserveAspectRatio="xMidYMid meet">
<metadata>
Created by potrace 1.14, written by Peter Selinger 2001-2017
</metadata>
<g transform="translate(0.000000,200.000000) scale(0.100000,-0.100000)"
fill="#000000" stroke="none">
<path d="M804 1920 c-4 -18 -13 -30 -22 -30 -8 0 -13 -3 -9 -6 13 -13 44 7 43
29 -1 16 5 22 19 22 16 0 20 -6 18 -27 -1 -22 3 -28 19 -28 16 0 19 -4 14 -25
-5 -20 -2 -26 19 -31 14 -3 25 -7 25 -9 0 -1 -5 -16 -11 -34 -7 -20 -18 -31
-30 -31 -18 0 -19 -10 -19 -220 0 -169 3 -220 13 -221 36 -3 83 4 89 13 8 14
227 1 245 -14 19 -15 61 -1 79 28 25 37 44 130 42 204 -1 65 -1 65 -8 -20 -12
-156 -56 -236 -111 -202 -10 7 -27 12 -38 12 -33 0 -32 26 3 45 72 39 98 135
57 217 -55 113 -221 126 -289 22 -12 -19 -22 -39 -22 -46 0 -7 8 2 17 21 37
74 144 107 220 68 98 -51 111 -205 22 -268 -16 -11 -32 -18 -36 -16 -5 3 -19
37 -32 75 -14 39 -28 69 -32 66 -4 -2 -17 -33 -29 -69 -12 -36 -26 -68 -32
-71 -14 -9 -68 44 -84 83 -8 18 -14 47 -15 65 0 27 -2 29 -8 13 -9 -21 1 -60
26 -110 23 -46 81 -75 148 -75 36 0 54 -4 50 -10 -4 -6 -10 -8 -15 -5 -16 10
-163 7 -169 -3 -3 -6 -22 -12 -41 -13 l-35 -4 -3 208 c-2 197 -1 209 16 214
12 3 24 20 31 42 14 50 15 49 -11 53 -19 2 -22 8 -20 31 2 18 -1 27 -11 27 -8
0 -17 13 -20 30 -5 24 -12 30 -32 30 -20 0 -27 -6 -31 -30z m311 -482 c10 -29
20 -59 23 -65 3 -9 -11 -13 -48 -13 -37 0 -50 3 -47 13 3 6 14 36 23 65 10 28
20 52 24 52 3 0 14 -24 25 -52z"/>
<path d="M772 1850 c0 -14 2 -19 5 -12 2 6 2 18 0 25 -3 6 -5 1 -5 -13z"/>
<path d="M720 1825 c0 -20 35 -85 46 -85 12 0 14 -36 14 -199 0 -199 0 -200
-22 -203 -21 -3 -21 -4 5 -9 l27 -6 0 213 c0 187 -2 214 -15 214 -16 0 -47 59
-39 72 3 5 0 8 -5 8 -6 0 -11 -2 -11 -5z"/>
<path d="M545 1750 c-16 -17 -40 -33 -52 -36 -18 -5 -22 -11 -17 -29 5 -20 1
-23 -40 -29 -110 -17 -240 -114 -327 -244 -41 -62 -57 -78 -82 -83 -31 -6 -30
-6 9 -8 22 0 48 -7 58 -14 10 -7 32 -11 48 -9 21 3 26 7 17 13 -22 13 45 133
111 199 30 30 87 72 126 93 78 40 94 44 94 23 0 -7 7 -19 15 -26 18 -15 9 -33
-13 -26 -10 3 -23 2 -31 -3 -12 -7 -8 -15 17 -40 17 -17 33 -44 35 -59 l4 -27
2 27 c0 15 -9 39 -24 56 -31 37 -31 44 -1 36 30 -7 46 24 21 43 -19 13 -12 33
11 33 8 0 14 6 14 14 0 9 -8 12 -24 9 -31 -6 -44 33 -14 42 20 7 93 75 80 75
-5 0 -21 -14 -37 -30z m-95 -105 c0 -3 -28 -19 -62 -36 -85 -43 -184 -144
-223 -229 -16 -36 -34 -68 -39 -72 -5 -3 -20 1 -33 9 l-23 15 23 41 c27 51
143 174 197 212 49 34 160 76 160 60z"/>
<path d="M647 1769 c33 -10 49 -30 63 -80 6 -19 5 -29 -2 -29 -6 0 -8 -10 -5
-22 4 -12 2 -27 -3 -32 -5 -7 -3 -27 5 -48 7 -21 9 -38 4 -38 -5 0 -8 -12 -8
-27 1 -21 2 -23 6 -8 3 11 9 24 14 29 4 5 4 17 -1 27 -11 20 -9 101 3 110 15
11 -15 89 -41 110 -14 10 -34 19 -46 18 -15 -1 -11 -4 11 -10z"/>
<path d="M1367 1714 c-4 -4 -31 -7 -62 -8 -30 -1 -55 -5 -56 -11 -1 -5 19 -17
44 -25 36 -12 47 -20 50 -40 3 -21 4 -20 6 6 1 29 -2 32 -38 38 -66 10 -63 29
3 24 39 -3 60 -1 67 9 11 13 -2 19 -14 7z"/>
<path d="M1421 1708 c0 -9 2 -19 7 -21 4 -3 74 -7 155 -8 133 -3 150 -2 158
14 7 11 7 17 -1 17 -5 0 -10 -7 -10 -16 0 -13 -7 -15 -31 -10 -17 3 -85 6
-150 6 -104 0 -118 2 -122 18 -4 15 -5 15 -6 0z"/>
<path d="M1784 1682 c4 -7 20 -12 37 -12 19 0 29 -5 29 -15 0 -9 -9 -15 -21
-15 -21 0 -22 -3 -16 -77 7 -90 45 -265 61 -275 6 -4 29 -7 51 -6 l40 1 -45 6
-45 6 -22 90 c-13 50 -26 124 -29 166 -6 72 -6 76 15 82 31 8 29 47 -3 47 -13
0 -32 3 -42 7 -12 4 -15 3 -10 -5z"/>
<path d="M1456 1613 c-3 -21 -6 -100 -6 -175 l0 -138 30 0 c26 0 30 3 29 28
-2 23 -2 24 -6 5 -3 -15 -12 -23 -24 -23 -18 0 -19 8 -19 134 0 161 6 196 31
196 17 0 19 -12 22 -142 l3 -143 2 148 2 147 -29 0 c-25 0 -29 -4 -35 -37z"/>
<path d="M1642 1578 l2 -63 3 58 c3 48 7 57 23 57 15 0 20 -9 23 -42 l4 -43 1
48 c2 46 1 47 -28 47 l-30 0 2 -62z"/>
<path d="M1703 1480 c0 -36 2 -50 4 -32 2 17 2 47 0 65 -2 17 -4 3 -4 -33z"/>
<path d="M1633 1440 c0 -41 2 -58 4 -37 2 20 2 54 0 75 -2 20 -4 3 -4 -38z"/>
<path d="M566 1454 c-13 -33 -16 -48 -8 -56 17 -17 42 10 42 46 0 54 -14 58
-34 10z m15 -47 c-18 -18 -23 -1 -9 29 13 28 13 28 16 5 2 -13 -1 -28 -7 -34z"/>
<path d="M704 1424 c-4 -22 -13 -51 -21 -66 -12 -25 -12 -28 4 -28 10 0 25 5
33 11 12 8 9 9 -9 4 -21 -6 -23 -5 -16 11 12 31 26 96 21 101 -3 3 -8 -12 -12
-33z"/>
<path d="M504 1394 c3 -50 2 -52 -31 -68 -18 -9 -33 -21 -33 -27 0 -6 12 -1
26 10 15 12 35 21 46 21 13 0 17 4 11 13 -4 6 -11 32 -15 57 l-7 45 3 -51z"/>
<path d="M1710 1355 c0 -54 0 -55 -29 -55 -26 0 -30 4 -34 33 -4 31 -4 31 -5
-5 -2 -38 -2 -38 38 -38 l40 0 0 60 c0 33 -2 60 -5 60 -3 0 -5 -25 -5 -55z"/>
<path d="M137 1203 c-40 -46 -29 -103 32 -168 46 -49 54 -67 36 -92 -15 -20
-31 -11 -37 22 -5 29 -58 34 -58 6 0 -82 104 -120 147 -55 27 42 12 97 -42
155 -32 34 -45 57 -43 72 4 29 38 35 45 8 3 -14 13 -21 29 -21 19 0 24 5 24
25 0 14 -9 34 -20 45 -26 26 -90 27 -113 3z"/>
<path d="M320 1055 l0 -165 30 0 30 0 0 165 0 165 -30 0 -30 0 0 -165z"/>
<path d="M437 1214 c-4 -4 -7 -79 -7 -166 l0 -158 25 0 25 0 0 108 c1 120 6
118 40 -12 20 -74 21 -91 10 -94 -27 -9 -60 -51 -60 -77 0 -35 14 -61 62 -113
29 -32 38 -50 36 -70 -2 -21 -8 -27 -28 -27 -18 0 -26 6 -28 23 -5 32 -42 30
-42 -3 0 -28 32 -65 55 -65 14 0 13 -3 -1 -25 -22 -34 -11 -84 27 -121 39 -37
51 -58 43 -78 -9 -24 -44 -20 -44 4 0 13 -7 20 -20 20 -26 0 -26 -34 0 -60 42
-42 100 -12 100 51 0 32 -7 47 -41 84 -42 45 -48 77 -16 83 9 2 20 -5 25 -15
11 -28 32 -27 32 2 0 15 -10 31 -25 41 -25 16 -25 17 -8 36 11 13 17 34 17 60
-1 32 -9 47 -42 81 -48 49 -64 85 -51 110 14 25 38 21 51 -8 6 -14 20 -25 30
-25 15 0 17 5 12 28 -4 15 -14 35 -22 45 -10 11 -11 17 -4 17 9 0 12 47 12
165 l0 165 -25 0 c-25 0 -25 -1 -26 -82 l-1 -83 -22 80 c-21 76 -24 80 -52 83
-16 2 -33 0 -37 -4z"/>
<path d="M680 1200 c-18 -18 -20 -33 -20 -147 0 -116 2 -129 22 -150 l21 -23
-21 0 c-15 0 -22 -6 -22 -20 0 -16 7 -20 30 -20 l30 0 0 -140 c0 -127 -2 -142
-20 -160 -17 -17 -20 -33 -20 -120 0 -87 3 -103 20 -120 23 -23 58 -26 86 -6
17 13 19 27 19 126 0 106 -1 113 -22 128 -22 14 -23 20 -23 153 l0 138 27 3
c36 4 41 38 5 38 l-25 0 21 23 c18 19 22 35 22 95 l0 72 -35 0 c-31 0 -35 -3
-35 -25 0 -14 5 -25 10 -25 16 0 12 -77 -4 -83 -29 -11 -37 19 -34 124 3 96 4
104 23 104 14 0 21 -8 25 -30 4 -21 11 -31 28 -33 19 -3 22 1 22 35 0 57 -22
83 -71 83 -26 0 -46 -7 -59 -20z m85 -780 c0 -88 -1 -95 -20 -95 -18 0 -20 8
-23 84 -3 96 1 114 25 109 16 -3 18 -16 18 -98z"/>
<path d="M909 1218 c-11 -32 -53 -331 -47 -334 4 -3 8 -67 8 -142 0 -110 3
-142 16 -161 15 -21 15 -23 -5 -37 -19 -14 -21 -25 -21 -124 0 -101 2 -110 22
-124 30 -21 54 -20 78 4 27 27 27 80 0 80 -16 0 -20 -7 -20 -30 0 -23 -5 -30
-19 -30 -25 0 -31 19 -31 100 0 81 6 100 31 100 14 0 19 -7 19 -25 0 -18 5
-25 20 -25 25 0 27 35 4 68 -12 18 -13 22 -1 22 8 0 21 8 30 18 14 15 17 42
17 160 0 111 3 143 14 149 12 7 10 33 -12 171 l-26 162 -38 0 c-21 0 -38 -1
-39 -2z m50 -222 c-13 -15 -41 2 -35 21 2 10 8 43 12 73 l8 55 11 -70 c6 -38
8 -74 4 -79z m14 -53 c2 -5 1 -82 -2 -173 l-6 -165 -25 0 -25 0 -3 160 c-1 87
0 165 2 172 6 14 52 18 59 6z"/>
<path d="M1080 890 l0 -330 40 0 c38 0 39 -1 35 -27 -22 -127 -35 -211 -35
-225 0 -28 27 -21 34 8 5 20 12 25 34 22 19 -2 28 -9 30 -25 2 -15 10 -23 23
-23 17 0 20 5 15 28 -7 31 -36 214 -36 223 0 4 -10 10 -22 14 -17 5 -19 8 -8
12 34 12 40 36 40 158 0 134 -8 155 -63 155 -26 0 -27 1 -27 65 0 63 1 65 25
65 14 0 37 11 50 25 21 20 25 34 25 80 0 78 -27 105 -105 105 l-55 0 0 -330z
m104 264 c16 -42 3 -94 -25 -94 -16 0 -19 8 -19 55 0 47 3 55 19 55 10 0 22
-7 25 -16z m4 -423 c3 -108 -4 -131 -39 -131 -18 0 -19 9 -19 121 l0 120 28
-3 27 -3 3 -104z m15 -323 c5 -35 4 -38 -19 -38 -19 0 -24 4 -20 18 3 9 8 40
12 67 7 47 8 48 15 20 4 -16 9 -47 12 -67z"/>
<path d="M1300 1193 c-20 -26 -21 -37 -18 -151 3 -116 4 -125 27 -143 17 -14
19 -19 7 -19 -14 0 -16 -20 -16 -160 0 -100 -4 -160 -10 -160 -5 0 -10 -9 -10
-20 0 -13 7 -20 20 -20 19 0 20 -7 20 -114 0 -105 1 -114 20 -119 19 -5 20 0
20 114 l0 119 25 0 c18 0 25 5 25 20 0 11 5 20 10 20 6 0 10 9 10 20 0 17 -7
20 -46 20 l-45 0 3 53 c3 51 4 52 36 55 19 2 32 9 32 17 0 8 -13 15 -32 17
-32 3 -33 5 -36 51 l-3 47 45 0 c39 0 46 3 46 20 0 12 -7 20 -16 20 -13 0 -12
5 5 26 19 24 21 40 21 150 0 111 -2 126 -20 144 -31 31 -93 27 -120 -7z m88
-134 c2 -84 0 -109 -12 -118 -29 -24 -36 -1 -36 115 0 114 0 115 23 112 21 -3
22 -8 25 -109z"/>
<path d="M1500 890 c0 -287 2 -330 15 -330 12 0 15 19 15 115 0 63 4 115 8
115 5 0 21 -50 37 -112 22 -87 26 -113 16 -116 -8 -3 -22 -13 -32 -23 -16 -16
-19 -35 -19 -119 0 -87 3 -103 20 -120 26 -26 64 -26 90 0 17 17 20 33 20 120
0 86 -3 103 -19 119 -11 11 -16 21 -11 23 4 2 10 105 12 229 2 183 0 229 -11
243 -11 13 -11 20 -3 28 7 7 12 38 12 69 0 72 -19 89 -97 89 l-53 0 0 -330z
m95 230 c0 -39 -3 -45 -22 -48 -21 -3 -23 0 -23 48 0 48 2 51 23 48 19 -3 22
-9 22 -48z m3 -160 c1 -30 5 -62 8 -70 7 -18 9 -189 2 -195 -10 -10 -58 207
-58 265 0 58 1 61 23 58 19 -3 22 -10 25 -58z m27 -540 c0 -88 -1 -95 -20 -95
-18 0 -20 8 -23 84 -3 96 1 114 25 109 16 -3 18 -16 18 -98z"/>
<path d="M1710 1030 l0 -190 25 0 25 0 0 -141 c0 -132 -1 -141 -20 -146 -19
-5 -20 -14 -20 -134 0 -108 2 -129 15 -129 12 0 15 17 15 90 0 50 4 90 8 90 5
0 14 -24 21 -53 23 -105 31 -125 51 -130 19 -5 20 0 20 132 0 116 -2 138 -15
138 -12 0 -15 -16 -15 -80 0 -44 -3 -78 -6 -75 -4 5 -43 141 -44 156 0 1 7 2
15 2 13 0 15 22 15 140 l0 140 31 0 c30 0 30 1 27 48 l-3 47 -42 3 -43 3 0 45
c0 44 0 44 35 44 31 0 35 3 35 25 0 22 -4 25 -35 25 -35 0 -35 0 -35 44 l0 45
43 3 c34 2 42 7 42 23 0 18 -8 20 -72 23 l-73 3 0 -191z"/>
<path d="M228 552 c-16 -2 -28 -6 -28 -10 0 -10 -29 -192 -36 -224 -5 -23 -2
-28 15 -28 13 0 21 8 23 23 2 16 10 22 28 22 18 0 26 -6 28 -22 4 -28 42 -32
42 -5 0 21 -38 244 -42 246 -2 1 -15 0 -30 -2z m12 -71 c0 -10 3 -39 6 -65 6
-43 5 -46 -16 -46 -21 0 -22 3 -16 38 3 20 6 49 6 65 0 15 5 27 10 27 6 0 10
-8 10 -19z"/>
<path d="M366 544 c-9 -9 -16 -32 -16 -55 0 -32 7 -47 41 -84 42 -46 48 -77
16 -83 -12 -3 -20 4 -24 17 -3 12 -13 21 -25 21 -17 0 -19 -4 -14 -27 20 -81
121 -68 121 15 0 33 -8 48 -43 86 -23 25 -42 53 -42 61 0 23 31 31 45 12 7
-10 20 -17 29 -17 13 0 16 5 11 23 -14 45 -68 62 -99 31z"/>
<path d="M1450 424 c0 -127 1 -134 20 -134 19 0 20 7 20 129 0 120 -1 129 -20
134 -19 5 -20 0 -20 -129z"/>
<path d="M1030 420 c0 -123 1 -130 20 -130 19 0 20 7 20 130 0 123 -1 130 -20
130 -19 0 -20 -7 -20 -130z"/>
<path d="M211 184 c0 -11 3 -14 6 -6 3 7 2 16 -1 19 -3 4 -6 -2 -5 -13z"/>
<path d="M331 184 c0 -11 3 -14 6 -6 3 7 2 16 -1 19 -3 4 -6 -2 -5 -13z"/>
<path d="M361 168 c-1 -30 3 -38 17 -38 13 0 14 2 3 9 -7 5 -11 13 -9 17 3 5
2 18 -3 29 -6 16 -8 12 -8 -17z"/>
<path d="M628 190 c6 -8 12 -23 13 -34 0 -15 3 -13 10 8 4 17 6 32 4 35 -3 2
-5 -1 -5 -9 0 -10 -3 -10 -17 1 -15 11 -16 11 -5 -1z"/>
<path d="M952 185 c1 -11 -1 -26 -5 -32 -6 -9 -3 -11 7 -7 18 7 20 23 5 44 -8
12 -9 12 -7 -5z"/>
<path d="M1052 170 c0 -19 2 -27 5 -17 2 9 2 25 0 35 -3 9 -5 1 -5 -18z"/>
<path d="M1080 168 c0 -23 3 -29 9 -19 8 12 4 51 -5 51 -2 0 -4 -15 -4 -32z"/>
<path d="M1192 170 c0 -19 2 -29 5 -22 2 6 9 10 14 6 5 -3 9 2 9 11 0 9 -4 14
-9 10 -5 -3 -12 3 -14 12 -3 10 -5 2 -5 -17z"/>
<path d="M1251 194 c0 -7 6 -25 14 -40 l15 -29 -1 40 c0 30 -2 35 -8 20 l-8
-20 -5 20 c-3 11 -6 15 -7 9z"/>
<path d="M1352 185 c1 -11 -1 -26 -5 -32 -6 -9 -3 -11 7 -7 18 7 20 23 5 44
-8 12 -9 12 -7 -5z"/>
<path d="M1441 173 c0 -17 3 -35 9 -38 6 -3 7 1 4 9 -3 9 -1 16 5 16 6 0 11 5
11 11 0 5 -4 8 -9 4 -5 -3 -12 3 -14 12 -3 10 -5 4 -6 -14z"/>
<path d="M1570 185 c0 -8 -6 -15 -12 -15 -9 0 -10 -3 -2 -8 6 -4 13 -14 16
-22 3 -8 6 2 6 23 0 20 -2 37 -4 37 -2 0 -4 -7 -4 -15z"/>
<path d="M1620 185 c-11 -13 -11 -18 0 -28 10 -9 11 -9 6 1 -4 7 -2 19 4 27 7
8 10 15 7 15 -2 0 -10 -7 -17 -15z"/>
<path d="M1663 171 c1 -21 8 -36 17 -38 13 -4 13 -3 0 6 -13 10 -13 12 0 21 9
6 10 10 3 10 -6 0 -14 8 -17 18 -2 9 -4 2 -3 -17z"/>
<path d="M470 181 c0 -10 19 -25 25 -20 1 2 -3 10 -11 17 -8 7 -14 8 -14 3z"/>
<path d="M733 166 c1 -17 9 -31 17 -33 10 -3 11 -2 4 4 -7 4 -14 19 -17 33 -4
22 -5 21 -4 -4z"/>
<path d="M1161 168 c0 -14 -7 -29 -13 -31 -10 -4 -10 -6 0 -6 16 -1 25 22 19
46 -3 12 -5 9 -6 -9z"/>
<path d="M272 160 c0 -14 2 -19 5 -12 2 6 2 18 0 25 -3 6 -5 1 -5 -13z"/>
<path d="M231 154 c0 -11 3 -14 6 -6 3 7 2 16 -1 19 -3 4 -6 -2 -5 -13z"/>
<path d="M316 157 c3 -10 9 -15 12 -12 3 3 0 11 -7 18 -10 9 -11 8 -5 -6z"/>
<path d="M432 156 c7 -8 15 -12 17 -11 5 6 -10 25 -20 25 -5 0 -4 -6 3 -14z"/>
<path d="M900 140 c-9 -6 -10 -10 -3 -10 6 0 15 5 18 10 8 12 4 12 -15 0z"/>
</g>
</svg>
