<svg xmlns="http://www.w3.org/2000/svg" xmlns:xlink="http://www.w3.org/1999/xlink" width="480" zoomAndPan="magnify" viewBox="0 0 360 359.999987" height="480" preserveAspectRatio="xMidYMid meet" version="1.0"><defs><clipPath id="0787a70dc1"><path d="M 11 55.574219 L 348 55.574219 L 348 201 L 11 201 Z M 11 55.574219 " clip-rule="nonzero"/></clipPath><clipPath id="cba13c721c"><path d="M 0 83 L 360 83 L 360 304.574219 L 0 304.574219 Z M 0 83 " clip-rule="nonzero"/></clipPath></defs><g clip-path="url(#0787a70dc1)"><path fill="#100f0d" d="M 180.078125 200.464844 C 195.074219 199.363281 275.953125 132.761719 347.730469 67.148438 C 340.441406 60.058594 330.507812 55.679688 319.539062 55.679688 L 40.492188 55.679688 C 29.214844 55.679688 19.023438 60.296875 11.675781 67.738281 C 83.652344 133.007812 164.941406 199.402344 180.078125 200.464844 " fill-opacity="1" fill-rule="nonzero"/></g><g clip-path="url(#cba13c721c)"><path fill="#100f0d" d="M 285.929688 146.28125 C 199.949219 219.105469 185.976562 219.105469 180.011719 219.105469 C 174.054688 219.105469 160.101562 219.105469 74.09375 146.878906 C 44.023438 121.628906 15.414062 96.144531 1.875 83.96875 C 0.648438 87.832031 -0.0195312 91.945312 -0.0195312 96.214844 L -0.0195312 264.058594 C -0.0195312 286.425781 18.105469 304.5625 40.460938 304.5625 L 319.507812 304.5625 C 341.882812 304.5625 360.019531 286.417969 360.019531 264.027344 L 360.019531 96.179688 C 360.019531 91.605469 359.222656 87.226562 357.824219 83.125 C 344.171875 95.507812 315.769531 121.007812 285.929688 146.28125 " fill-opacity="1" fill-rule="nonzero"/></g></svg>