<?xml version="1.0" encoding="UTF-8" standalone="no"?>
<svg
   width="340"
   height="85.475471"
   viewBox="0 0 339.99997 85.475472"
   version="1.1"
   id="svg704"
   sodipodi:docname="Infocomm_Media_Development_Authority_logo.svg"
   inkscape:version="1.2.2 (732a01da63, 2022-12-09)"
   xmlns:inkscape="http://www.inkscape.org/namespaces/inkscape"
   xmlns:sodipodi="http://sodipodi.sourceforge.net/DTD/sodipodi-0.dtd"
   xmlns:xlink="http://www.w3.org/1999/xlink"
   xmlns="http://www.w3.org/2000/svg"
   xmlns:svg="http://www.w3.org/2000/svg">
  <sodipodi:namedview
     id="namedview706"
     pagecolor="#ffffff"
     bordercolor="#666666"
     borderopacity="1.0"
     inkscape:showpageshadow="2"
     inkscape:pageopacity="0.0"
     inkscape:pagecheckerboard="0"
     inkscape:deskcolor="#d1d1d1"
     showgrid="false"
     inkscape:zoom="0.70710678"
     inkscape:cx="473.05444"
     inkscape:cy="76.367532"
     inkscape:window-width="1366"
     inkscape:window-height="705"
     inkscape:window-x="-8"
     inkscape:window-y="-8"
     inkscape:window-maximized="1"
     inkscape:current-layer="svg704" />
  <defs
     id="defs3">
    <path
       id="a"
       d="m 154.8,0.5 h 4.2 v 17.3 h -4.2 z" />
    <defs
       id="defs553">
      <path
         id="aM"
         d="m 261.3,67.8 h 4.2 v 17.3 h -4.2 z" />
    </defs>
    <defs
       id="defs534">
      <path
         id="aJ"
         d="m 249.1,71.2 h 2.2 c 0.3,0 0.6,0 1,0.1 0.3,0.1 0.6,0.1 0.9,0.3 0.3,0.1 0.5,0.3 0.7,0.6 0.2,0.2 0.3,0.6 0.3,1 0,0.4 -0.1,0.8 -0.3,1.1 -0.2,0.3 -0.4,0.5 -0.7,0.6 -0.3,0.1 -0.6,0.2 -1,0.3 -0.4,0.1 -0.7,0.1 -1.1,0.1 h -2 z m -4,-3.4 v 17.3 h 4.1 v -6.9 h 1.4 l 3.8,6.9 h 4.9 l -4.5,-7.4 c 1.1,-0.3 2,-0.9 2.6,-1.7 0.6,-0.8 1,-1.8 1,-3 0,-1 -0.2,-1.8 -0.6,-2.5 -0.4,-0.7 -0.9,-1.2 -1.5,-1.6 -0.6,-0.4 -1.3,-0.7 -2.1,-0.9 -0.8,-0.2 -1.6,-0.3 -2.4,-0.3 h -6.7 z" />
    </defs>
    <defs
       id="defs420">
      <path
         id="ar"
         d="m 326.2,45.4 v 3.5 h 4.9 v 13.8 h 4.2 V 48.9 h 4.9 v -3.5 z" />
    </defs>
    <defs
       id="defs401">
      <path
         id="ao"
         d="m 320.1,45.4 0.1,11.3 h -0.1 l -7,-11.3 h -4.7 v 17.3 h 4 l -0.1,-11.3 h 0.1 l 7,11.3 h 4.7 V 45.4 Z" />
    </defs>
    <defs
       id="defs306">
      <path
         id="Z"
         d="m 221.5,45.4 v 17.3 h 10.9 V 59 h -6.7 V 45.4 Z" />
    </defs>
    <defs
       id="defs686">
      <path
         id="bh"
         d="M 87.8,0.5 106.7,42.8 125.6,0.5 Z" />
    </defs>
    <defs
       id="defs629">
      <path
         id="aY"
         d="M 0,85.1 18.7,75.3 V 10.6 L 0,0.5 Z" />
    </defs>
    <defs
       id="defs363">
      <path
         id="ai"
         d="M 283.8,45.4 280,56.5 h -0.1 L 276,45.4 h -6 v 17.3 h 4 l -0.1,-12.3 4.4,12.3 h 3 l 4.5,-12.3 -0.1,12.3 h 4.2 V 45.4 Z" />
    </defs>
    <defs
       id="defs344">
      <path
         id="af"
         d="m 259.2,48.7 h 1.8 c 0.4,0 0.7,0 1.1,0.1 0.3,0 0.7,0.1 0.9,0.3 0.3,0.1 0.5,0.3 0.7,0.6 0.2,0.3 0.2,0.6 0.2,1 0,0.4 -0.1,0.7 -0.2,1 -0.2,0.3 -0.4,0.5 -0.7,0.7 -0.3,0.2 -0.6,0.3 -1,0.3 -0.4,0.1 -0.7,0.1 -1.1,0.1 h -1.8 V 48.7 Z M 255,45.4 v 17.3 h 4.2 v -6.5 h 2.1 c 0.9,0 1.8,-0.1 2.6,-0.3 0.8,-0.2 1.6,-0.5 2.2,-0.9 0.6,-0.4 1.1,-1 1.5,-1.7 0.4,-0.7 0.6,-1.5 0.6,-2.6 0,-1 -0.2,-1.8 -0.5,-2.5 -0.3,-0.7 -0.8,-1.2 -1.4,-1.6 -0.6,-0.4 -1.3,-0.7 -2.2,-0.9 -0.8,-0.2 -1.7,-0.3 -2.7,-0.3 z" />
    </defs>
    <defs
       id="defs496">
      <path
         id="aD"
         d="m 217.7,67.8 v 6.6 h -6.8 v -6.6 h -4.1 v 17.3 h 4.1 v -7.2 h 6.8 v 7.2 h 4.2 V 67.8 Z" />
    </defs>
    <defs
       id="defs572">
      <path
         id="aP"
         d="m 267.4,67.8 v 3.6 h 4.9 v 13.7 h 4.2 V 71.4 h 4.9 v -3.6 z" />
    </defs>
    <defs
       id="defs648">
      <path
         id="bb"
         d="m 79.8,85.1 h 21.7 L 79.8,30.8 Z" />
    </defs>
    <defs
       id="defs325">
      <path
         id="ac"
         d="m 241.2,58.9 c -0.6,-0.3 -1.1,-0.6 -1.6,-1.1 -0.4,-0.5 -0.8,-1 -1,-1.7 -0.2,-0.7 -0.4,-1.4 -0.4,-2.2 0,-0.8 0.1,-1.5 0.4,-2.1 0.2,-0.6 0.6,-1.2 1,-1.7 0.4,-0.5 1,-0.8 1.6,-1.1 0.6,-0.3 1.3,-0.4 2,-0.4 0.7,0 1.4,0.1 2,0.4 0.6,0.3 1.1,0.6 1.6,1.1 0.4,0.5 0.8,1 1,1.7 0.2,0.7 0.4,1.4 0.4,2.1 0,0.8 -0.1,1.5 -0.4,2.2 -0.2,0.7 -0.6,1.2 -1,1.7 -0.4,0.5 -1,0.8 -1.6,1.1 -0.6,0.3 -1.3,0.4 -2,0.4 -0.8,0 -1.4,-0.1 -2,-0.4 m -1.8,-13.4 c -1.2,0.4 -2.1,1 -3,1.8 -0.8,0.8 -1.5,1.7 -2,2.9 -0.5,1.1 -0.7,2.4 -0.7,3.8 0,1.4 0.2,2.6 0.7,3.8 0.5,1.1 1.1,2.1 2,2.9 0.8,0.8 1.8,1.4 3,1.9 1.1,0.4 2.4,0.7 3.8,0.7 1.4,0 2.6,-0.2 3.8,-0.7 1.2,-0.4 2.2,-1.1 3,-1.9 0.8,-0.8 1.5,-1.8 2,-2.9 0.5,-1.1 0.7,-2.4 0.7,-3.8 0,-1.4 -0.2,-2.6 -0.7,-3.8 -0.5,-1.1 -1.1,-2.1 -2,-2.9 -0.8,-0.8 -1.8,-1.4 -3,-1.8 -1.2,-0.4 -2.4,-0.6 -3.8,-0.6 -1.4,0 -2.6,0.2 -3.8,0.6" />
    </defs>
    <defs
       id="defs477">
      <path
         id="aA"
         d="m 190.9,67.8 v 3.6 h 4.9 V 85.1 H 200 V 71.4 h 4.9 v -3.6 z" />
    </defs>
    <defs
       id="defs667">
      <path
         id="be"
         d="m 111.8,85.1 h 21.7 V 30.8 Z" />
    </defs>
    <defs
       id="defs591">
      <path
         id="aS"
         d="m 295.2,67.8 -3.7,6.4 -3.7,-6.4 h -5.1 l 6.5,10 v 7.3 h 4.2 v -7.3 l 6.7,-10 z" />
    </defs>
    <defs
       id="defs610">
      <path
         id="aV"
         d="m 39.9,10.6 v 64.7 l 18.7,9.8 V 0.5 Z" />
    </defs>
    <defs
       id="defs515">
      <path
         id="aG"
         d="m 231.3,81.4 c -0.6,-0.3 -1.1,-0.6 -1.6,-1.1 -0.4,-0.5 -0.8,-1 -1,-1.7 -0.2,-0.7 -0.4,-1.4 -0.4,-2.2 0,-0.7 0.1,-1.5 0.4,-2.1 0.2,-0.7 0.6,-1.2 1,-1.7 0.4,-0.5 1,-0.8 1.6,-1.1 0.6,-0.3 1.3,-0.4 2,-0.4 0.7,0 1.4,0.1 2,0.4 0.6,0.3 1.1,0.6 1.6,1.1 0.4,0.5 0.8,1 1,1.7 0.2,0.7 0.4,1.4 0.4,2.1 0,0.8 -0.1,1.5 -0.4,2.2 -0.2,0.7 -0.6,1.2 -1,1.7 -0.4,0.5 -1,0.8 -1.6,1.1 -0.6,0.3 -1.3,0.4 -2,0.4 -0.7,0 -1.4,-0.1 -2,-0.4 M 229.6,68 c -1.2,0.4 -2.1,1 -3,1.8 -0.8,0.8 -1.5,1.7 -2,2.9 -0.5,1.1 -0.7,2.4 -0.7,3.8 0,1.4 0.2,2.6 0.7,3.8 0.5,1.1 1.1,2.1 2,2.9 0.8,0.8 1.8,1.4 3,1.9 1.1,0.4 2.4,0.7 3.8,0.7 1.4,0 2.6,-0.2 3.8,-0.7 1.2,-0.4 2.2,-1.1 3,-1.9 0.8,-0.8 1.5,-1.8 2,-2.9 0.5,-1.1 0.7,-2.4 0.7,-3.8 0,-1.4 -0.2,-2.6 -0.7,-3.8 -0.5,-1.1 -1.1,-2.1 -2,-2.9 -0.8,-0.8 -1.8,-1.4 -3,-1.8 -1.2,-0.4 -2.4,-0.6 -3.8,-0.6 -1.4,-0.1 -2.7,0.2 -3.8,0.6" />
    </defs>
    <defs
       id="defs382">
      <path
         id="al"
         d="m 293.5,45.4 v 17.3 h 12.1 v -3.6 h -8 v -3.6 h 7.2 v -3.3 h -7.2 v -3.3 h 7.6 v -3.5 z" />
    </defs>
    <defs
       id="defs287">
      <path
         id="W"
         d="m 206.6,45.4 v 17.3 h 12.1 v -3.6 h -8 v -3.6 h 7.2 v -3.3 h -7.2 v -3.3 h 7.6 v -3.5 z" />
    </defs>
    <defs
       id="defs230">
      <path
         id="N"
         d="m 158.9,48.9 h 2.1 c 0.7,0 1.4,0.1 2.1,0.2 0.7,0.2 1.3,0.4 1.8,0.8 0.5,0.4 1,0.9 1.3,1.5 0.3,0.6 0.5,1.5 0.5,2.4 0,1 -0.1,1.8 -0.5,2.4 -0.3,0.7 -0.7,1.2 -1.3,1.6 -0.5,0.4 -1.1,0.7 -1.8,0.8 -0.7,0.2 -1.4,0.3 -2.2,0.3 h -2 z m -4.1,-3.5 v 17.3 h 6.5 c 1.2,0 2.4,-0.2 3.5,-0.5 1.2,-0.3 2.2,-0.9 3.1,-1.6 0.9,-0.7 1.7,-1.6 2.2,-2.7 0.6,-1.1 0.8,-2.4 0.8,-3.9 0,-1.6 -0.3,-3 -0.9,-4.1 -0.6,-1.1 -1.3,-2 -2.3,-2.7 -0.9,-0.7 -2,-1.1 -3.2,-1.4 -1.2,-0.3 -2.4,-0.4 -3.6,-0.4 z" />
    </defs>
    <defs
       id="defs458">
      <path
         id="ax"
         d="m 184.7,67.8 v 10.5 c 0,0.5 -0.1,0.9 -0.2,1.3 -0.1,0.4 -0.3,0.8 -0.6,1.1 -0.3,0.3 -0.6,0.6 -1,0.8 -0.4,0.2 -0.9,0.3 -1.5,0.3 -0.6,0 -1.1,-0.1 -1.5,-0.3 -0.4,-0.2 -0.8,-0.5 -1,-0.8 -0.3,-0.3 -0.4,-0.7 -0.6,-1.1 -0.1,-0.4 -0.2,-0.9 -0.2,-1.3 V 67.8 H 174 v 10.8 c 0,1 0.2,2 0.5,2.9 0.3,0.9 0.8,1.6 1.5,2.2 0.6,0.6 1.4,1.1 2.3,1.4 0.9,0.3 1.9,0.5 3.1,0.5 1.1,0 2.1,-0.2 3.1,-0.5 0.9,-0.3 1.7,-0.8 2.4,-1.4 0.7,-0.6 1.2,-1.3 1.5,-2.2 0.3,-0.9 0.5,-1.8 0.5,-2.9 V 67.8 Z" />
    </defs>
    <defs
       id="defs268">
      <path
         id="T"
         d="m 199.9,45.4 -4,12.3 h -0.1 l -4,-12.3 h -4.7 l 6.6,17.3 h 4.1 l 6.7,-17.3 z" />
    </defs>
    <defs
       id="defs439">
      <path
         id="au"
         d="m 164.1,72.4 2.2,6 h -4.4 z m -2,-4.6 -7.3,17.3 h 4.5 l 1.3,-3.4 h 6.7 l 1.3,3.4 h 4.7 l -7.2,-17.3 z" />
    </defs>
    <defs
       id="defs192">
      <path
         id="H"
         d="m 210.9,22.9 h 4.2 v 17.3 h -4.2 z" />
    </defs>
    <defs
       id="defs173">
      <path
         id="E"
         d="m 196.5,26.5 h 2.1 c 0.7,0 1.4,0.1 2.1,0.2 0.7,0.2 1.3,0.4 1.8,0.8 0.5,0.4 1,0.9 1.3,1.5 0.3,0.6 0.5,1.5 0.5,2.4 0,1 -0.2,1.8 -0.5,2.4 -0.3,0.7 -0.7,1.2 -1.3,1.6 -0.5,0.4 -1.1,0.7 -1.8,0.8 -0.7,0.2 -1.4,0.3 -2.2,0.3 h -2 z m -4.1,-3.6 v 17.3 h 6.5 c 1.2,0 2.4,-0.2 3.5,-0.5 1.2,-0.3 2.2,-0.9 3.1,-1.6 0.9,-0.7 1.7,-1.6 2.2,-2.7 0.6,-1.1 0.8,-2.4 0.8,-3.9 0,-1.6 -0.3,-3 -0.9,-4.1 -0.6,-1.1 -1.3,-2 -2.3,-2.7 -0.9,-0.7 -2,-1.1 -3.2,-1.4 -1.2,-0.3 -2.4,-0.4 -3.6,-0.4 z" />
    </defs>
    <defs
       id="defs211">
      <path
         id="K"
         d="m 226.2,27.5 2.2,6 H 224 Z m -1.9,-4.6 -7.3,17.3 h 4.6 l 1.3,-3.4 h 6.7 l 1.3,3.4 h 4.7 l -7.2,-17.3 z" />
    </defs>
    <defs
       id="defs249">
      <path
         id="Q"
         d="m 173.4,45.4 v 17.3 h 12.1 v -3.6 h -8 v -3.6 h 7.2 v -3.3 h -7.2 v -3.3 h 7.6 v -3.5 z" />
    </defs>
    <radialGradient
       inkscape:collect="always"
       xlink:href="#c"
       id="radialGradient4013"
       gradientUnits="userSpaceOnUse"
       gradientTransform="matrix(168.5428,0,0,-168.5428,17412.489,57421.971)"
       cx="-103.15"
       cy="340.44"
       r="1" />
    <radialGradient
       id="c-9"
       cx="-103.15"
       cy="340.44"
       r="1"
       gradientTransform="matrix(168.6583,0,0,-168.6583,17424.422,57461.355)"
       gradientUnits="userSpaceOnUse">
      <stop
         offset="0"
         stop-color="#ED1C29"
         id="stop8-6" />
      <stop
         offset="0"
         stop-color="#ED1C29"
         id="stop10-7" />
      <stop
         offset=".64"
         stop-color="#6F368E"
         id="stop12-6" />
      <stop
         offset="1"
         stop-color="#6F368E"
         id="stop14-8" />
    </radialGradient>
  </defs>
  <radialGradient
     id="c"
     cx="-103.15"
     cy="340.44"
     r="1"
     gradientTransform="matrix(168.6583,0,0,-168.6583,17424.422,57461.355)"
     gradientUnits="userSpaceOnUse">
    <stop
       offset="0"
       stop-color="#ED1C29"
       id="stop8" />
    <stop
       offset="0"
       stop-color="#ED1C29"
       id="stop10" />
    <stop
       offset=".64"
       stop-color="#6F368E"
       id="stop12" />
    <stop
       offset="1"
       stop-color="#6F368E"
       id="stop14" />
  </radialGradient>
  <path
     id="path5424"
     style="fill:url(#radialGradient4013);fill-opacity:1;stroke-width:0.999314"
     d="m 204.92105,0 c -5.42757,0 -9.45558,3.5121021 -9.45558,9.0870311 0,5.5012519 4.02801,9.2337889 9.45558,9.2337889 5.45214,0 9.4795,-3.732537 9.4795,-9.2337889 C 214.40055,3.5121021 210.37319,0 204.92105,0 Z m 20.96114,0 c -5.30478,0 -9.43035,3.5612426 -9.43035,9.136172 0,5.452133 4.00274,9.184648 9.35664,9.184648 2.92254,0 5.23151,-1.105138 6.75418,-2.873398 l -2.92254,-2.750547 c -0.73678,1.031485 -2.03875,1.768398 -3.68422,1.768398 -2.89799,0 -4.93664,-2.16097 -4.93664,-5.329101 0,-3.0698947 2.08781,-5.3297659 5.01035,-5.3297659 1.32619,0 2.72633,0.5158034 3.51223,1.5964064 l 2.84882,-2.8488281 C 230.94167,0.88396161 228.31354,0 225.88219,0 Z m 16.81273,0 C 237.26735,0 233.24,3.5121021 233.24,9.0870311 c 0,5.5012519 4.02735,9.2337889 9.45492,9.2337889 5.45214,0 9.48016,-3.732537 9.48016,-9.2337889 C 252.17508,3.5121021 248.14706,0 242.69492,0 Z M 0,0.46683595 V 85.008633 L 18.686719,75.215704 V 10.559922 Z m 58.559023,0 -18.68672,10.09308605 v 64.655782 l 18.68672,9.792929 z m 29.180898,0 L 106.62652,42.738398 125.51445,0.46683595 Z m 66.853829,0 V 17.854648 h 4.2241 V 0.46683595 Z m 8.09492,0 V 17.854648 h 4.07668 l -0.0976,-11.3707419 h 0.0737 l 6.99921,11.3707419 h 4.76399 V 0.46683595 h -4.07668 l 0.0983,11.34617205 h -0.0737 L 167.47789,0.46683595 Z m 19.68613,0 V 17.854648 h 4.1504 v -6.754179 h 6.7296 V 7.638047 h -6.7296 V 4.0521095 h 7.29406 V 0.46683595 Z m 72.05079,0 V 17.854648 h 3.95382 l -0.0983,-12.3044135 h 0.0737 l 4.3961,12.3044135 h 2.94711 l 4.51894,-12.3044135 h 0.0737 l -0.0983,12.3044135 h 4.10125 V 0.46683595 h -6.06554 l -3.7825,11.14960905 h -0.0983 L 260.39352,0.46683595 Z m 23.58351,0 V 17.854648 h 3.95449 l -0.0983,-12.3044135 h 0.0737 l 4.3961,12.3044135 h 2.94711 l 4.51894,-12.3044135 h 0.0737 l -0.0983,12.3044135 h 4.10125 V 0.46683595 h -6.06621 L 288.0298,11.616445 h -0.0983 L 283.97703,0.46683595 Z M 204.92105,3.781836 c 2.94711,0 4.98579,2.2598596 4.98579,5.3051951 0,3.1435719 -2.06325,5.4028129 -4.98579,5.4028129 -2.92254,0 -4.96121,-2.259241 -4.96121,-5.4028129 0,-3.0453355 2.01411,-5.3051951 4.96121,-5.3051951 z m 37.77387,0 c 2.9471,0 4.98578,2.2598596 4.98578,5.3051951 0,3.1435719 -2.06323,5.4028129 -4.98578,5.4028129 -2.92254,0 -4.96054,-2.259241 -4.96054,-5.4028129 0,-3.0453355 2.01344,-5.3051951 4.96054,-5.3051951 z m -88.10117,19.202695 v 17.387814 h 3.95449 l -0.0983,-12.303751 h 0.0737 l 4.3961,12.303751 h 2.94711 l 4.51828,-12.303751 h 0.0737 l -0.0983,12.303751 h 4.10191 V 22.984531 h -6.06621 l -3.7825,11.150272 h -0.0983 L 160.5616,22.984531 Z m 23.08414,0 v 17.387814 h 12.13242 V 36.787072 H 181.73 v -3.610509 h 7.22102 V 29.811758 H 181.73 v -3.26586 h 7.63805 v -3.561367 z m 14.59012,0 v 17.387814 h 6.4839 c 4.78904,0 9.74977,-2.62782 9.74977,-8.743048 0,-6.581856 -5.00994,-8.644766 -9.94633,-8.644766 z m 18.4875,0 v 17.387814 h 4.22476 V 22.984531 Z m 13.38949,0 -7.29406,17.387814 h 4.56808 l 1.277,-3.413284 h 6.7296 l 1.35071,3.413284 h 4.66637 l -7.22102,-17.387814 z m -27.77574,3.585938 h 2.08781 c 2.89798,0 5.67309,1.153919 5.67309,5.058828 0,3.880344 -2.77515,5.108631 -5.77137,5.108631 h -1.98953 z m 29.7407,1.055859 2.16086,5.96793 H 223.8993 Z M 79.745273,30.746094 v 54.262539 h 21.684957 z m 53.663557,0 -21.68496,54.262539 h 21.68496 z m 109.58625,14.090077 c -5.42758,0 -9.45492,3.512101 -9.45492,9.087033 0,5.501251 4.02734,9.233788 9.45492,9.233788 5.45213,0 9.48015,-3.732537 9.48015,-9.233788 0,-5.574932 -4.02802,-9.087033 -9.48015,-9.087033 z m -88.40133,0.466837 v 17.387814 h 6.48391 c 4.78903,0 9.74976,-2.627823 9.74976,-8.743049 0,-6.581856 -5.00994,-8.644765 -9.94633,-8.644765 z m 18.68738,0 v 17.387814 h 12.13176 v -3.585939 h -8.07965 v -3.609845 h 7.22035 v -3.364803 h -7.22035 v -3.266523 h 7.63805 v -3.560704 z m 13.69098,0 6.58152,17.387814 h 4.19953 l 6.70504,-17.387814 h -4.64179 l -4.00297,12.328321 h -0.0983 L 191.6876,45.303008 Z m 19.48625,0 v 17.387814 h 12.13242 v -3.585939 h -8.08031 v -3.609845 h 7.22035 v -3.364803 h -7.22035 v -3.266523 h 7.63805 v -3.560704 z m 14.89027,0 v 17.387814 h 10.95305 v -3.659651 h -6.72895 V 45.303008 Z m 33.47672,0 v 17.387814 h 4.19953 v -6.557618 h 2.08782 c 3.63475,0 6.90093,-1.448821 6.90093,-5.476526 0,-3.978581 -2.99598,-5.35367 -6.80265,-5.35367 z m 14.98922,0 v 17.387814 h 3.95449 l -0.0983,-12.304417 h 0.0737 l 4.3961,12.304417 h 2.94711 l 4.51894,-12.304417 h 0.0737 l -0.0983,12.304417 h 4.10125 V 45.303008 h -6.06621 l -3.78184,11.149609 h -0.0983 L 275.7825,45.303008 Z m 23.48457,0 v 17.387814 h 12.13242 v -3.585939 h -8.07965 v -3.609845 h 7.22036 v -3.364803 h -7.22036 v -3.266523 h 7.63739 v -3.560704 z m 14.88961,0 v 17.387814 h 4.07668 l -0.0983,-11.370743 h 0.0737 l 6.99922,11.370743 h 4.76465 V 45.303008 h -4.07668 l 0.0983,11.34617 h -0.0737 l -6.97465,-11.34617 z m 17.78824,0 v 3.585272 h 4.91141 v 13.802542 h 4.19953 V 48.88828 H 340 v -3.585272 z m -82.98191,3.315 c 2.9471,0 4.98578,2.259861 4.98578,5.305196 0,3.143576 -2.06324,5.402811 -4.98578,5.402811 -2.92255,0 -4.96055,-2.259235 -4.96055,-5.402811 0,-3.045335 2.01345,-5.305196 4.96055,-5.305196 z m 16.0298,0.07371 h 1.84211 c 1.49811,0 2.94711,0.319508 2.94711,1.98953 0,1.645467 -1.44903,2.112383 -3.02082,2.112383 h -1.7684 z M 158.695,48.88828 h 2.08781 c 2.89798,0 5.67309,1.154583 5.67309,5.059493 0,3.880345 -2.77515,5.107969 -5.77137,5.107969 H 158.695 Z m 74.40687,18.265705 c -5.42758,0 -9.45492,3.512088 -9.45492,9.08703 0,5.501268 4.02734,9.234455 9.45492,9.234455 5.45215,0 9.48016,-3.733187 9.48016,-9.234455 0,-5.574942 -4.02801,-9.08703 -9.48016,-9.08703 z m -71.21406,0.466837 -7.29406,17.387811 h 4.56809 l 1.27699,-3.413281 h 6.72961 l 1.3507,3.413281 h 4.66637 l -7.22035,-17.387811 z m 11.8927,0 v 10.830856 c 0,4.175071 2.8489,7.023792 7.41691,7.023792 4.54345,0 7.49063,-2.848721 7.49063,-7.023792 V 67.620822 h -4.19953 v 10.486875 c 0,1.866501 -0.88428,3.585936 -3.26653,3.585936 -2.35768,0 -3.26652,-1.719435 -3.26652,-3.585936 V 67.620822 Z m 16.8891,0 v 3.585936 h 4.91141 v 13.801875 h 4.19953 V 71.206758 h 4.91207 v -3.585936 z m 15.88836,0 v 17.387811 h 4.19953 V 77.73914 h 6.77875 v 7.269493 h 4.19953 V 67.620822 h -4.19953 v 6.582186 h -6.77875 v -6.582186 z m 38.27391,0 v 17.387811 h 4.12648 v -6.900936 h 1.42441 l 3.75727,6.900936 h 4.91207 l -4.54352,-7.441485 c 2.23489,-0.68766 3.60985,-2.357145 3.60985,-4.690273 0,-3.978595 -3.31518,-5.256053 -6.65524,-5.256053 z m 16.18917,0 v 17.387811 h 4.22411 V 67.620822 Z m 6.09543,0 v 3.585936 h 4.91207 v 13.801875 h 4.19954 V 71.206758 h 4.91207 v -3.585936 z m 15.29004,0 6.53239,10.020038 v 7.367773 h 4.19953 V 77.64086 l 6.68047,-10.020038 h -4.91207 l -3.70813,6.434765 -3.70879,-6.434765 z m -49.30465,3.315663 c 2.94711,0 4.98579,2.259188 4.98579,5.30453 0,3.143579 -2.06324,5.403477 -4.98579,5.403477 -2.92254,0 -4.96054,-2.259898 -4.96054,-5.403477 0,-3.045342 2.01344,-5.30453 4.96054,-5.30453 z m 15.83192,0.07371 h 2.23457 c 1.25252,0 2.79969,0.319477 2.79969,1.94039 0,1.768265 -1.69464,2.111716 -3.04539,2.111716 h -1.98887 z m -85.08102,1.25242 2.16153,5.967929 h -4.37153 z" />
  <defs
     id="defs20">
    <path
       id="d"
       d="m 173.8,17.8 -7,-11.3 h -0.1 l 0.1,11.3 h -4 V 0.5 h 4.7 l 7,11.3 h 0.1 L 174.5,0.5 h 4 v 17.3 z" />
  </defs>
  <defs
     id="defs37">
    <path
       id="g"
       d="m 186.7,4 v 3.6 h 6.7 v 3.5 h -6.7 v 6.7 h -4.2 V 0.5 h 11.4 V 4 Z" />
  </defs>
  <defs
     id="defs54">
    <path
       id="j"
       d="m 203.1,14 c -0.6,-0.3 -1.1,-0.6 -1.6,-1.1 -0.4,-0.5 -0.8,-1 -1,-1.7 -0.2,-0.7 -0.4,-1.4 -0.4,-2.2 0,-0.8 0.1,-1.5 0.4,-2.1 0.2,-0.7 0.6,-1.2 1,-1.7 0.4,-0.5 1,-0.8 1.6,-1.1 0.6,-0.3 1.3,-0.4 2,-0.4 0.7,0 1.4,0.1 2,0.4 0.6,0.3 1.1,0.6 1.6,1.1 0.4,0.5 0.8,1 1,1.7 0.2,0.7 0.4,1.4 0.4,2.1 0,0.8 -0.1,1.5 -0.4,2.2 -0.2,0.7 -0.6,1.2 -1,1.7 -0.4,0.5 -1,0.8 -1.6,1.1 -0.6,0.3 -1.3,0.4 -2,0.4 -0.8,0.1 -1.4,-0.1 -2,-0.4 M 201.3,0.6 c -1.1,0.4 -2.1,1 -3,1.8 -0.8,0.8 -1.5,1.7 -2,2.9 -0.5,1.1 -0.7,2.4 -0.7,3.8 0,1.4 0.2,2.6 0.7,3.8 0.5,1.1 1.1,2.1 2,2.9 0.8,0.8 1.8,1.4 3,1.9 1.2,0.4 2.4,0.7 3.8,0.7 1.4,0 2.6,-0.2 3.8,-0.7 1.2,-0.4 2.2,-1.1 3,-1.9 0.8,-0.8 1.5,-1.8 2,-2.9 0.5,-1.1 0.7,-2.4 0.7,-3.8 0,-1.4 -0.2,-2.6 -0.7,-3.8 -0.5,-1.1 -1.1,-2.1 -2,-2.9 -0.8,-0.8 -1.8,-1.4 -3,-1.8 -1.2,-0.4 -2.4,-0.6 -3.8,-0.6 -1.4,0 -2.6,0.2 -3.8,0.6" />
  </defs>
  <defs
     id="defs71">
    <path
       id="m"
       d="m 222.3,0.6 c -1.1,0.4 -2.1,1 -3,1.8 -0.9,0.8 -1.5,1.8 -2,2.9 -0.5,1.1 -0.7,2.4 -0.7,3.8 0,1.4 0.2,2.6 0.7,3.7 0.5,1.1 1.1,2.1 2,2.9 0.8,0.8 1.8,1.4 3,1.9 1.1,0.4 2.4,0.7 3.7,0.7 1.5,0 2.8,-0.3 3.9,-0.8 1.1,-0.5 2.1,-1.2 2.8,-2.1 l -2.9,-2.7 c -0.4,0.5 -0.9,0.9 -1.5,1.3 -0.6,0.3 -1.4,0.5 -2.2,0.5 -0.7,0 -1.4,-0.1 -2,-0.4 -0.6,-0.3 -1.1,-0.6 -1.6,-1.1 -0.4,-0.5 -0.8,-1 -1,-1.7 -0.2,-0.6 -0.4,-1.4 -0.4,-2.1 0,-0.8 0.1,-1.5 0.4,-2.1 0.2,-0.6 0.6,-1.2 1,-1.7 0.4,-0.5 1,-0.8 1.6,-1.1 0.6,-0.3 1.3,-0.4 2,-0.4 0.7,0 1.3,0.1 2,0.4 0.6,0.3 1.2,0.7 1.5,1.2 l 2.8,-2.8 C 231.7,1.9 230.7,1.2 229.5,0.8 228.4,0.2 227.2,0 226,0 c -1.4,0 -2.6,0.2 -3.7,0.6" />
  </defs>
  <defs
     id="defs88">
    <path
       id="p"
       d="m 240.8,14 c -0.6,-0.3 -1.1,-0.6 -1.5,-1.1 -0.4,-0.5 -0.8,-1 -1,-1.7 -0.2,-0.7 -0.4,-1.4 -0.4,-2.2 0,-0.8 0.1,-1.5 0.4,-2.1 0.2,-0.7 0.6,-1.2 1,-1.7 0.4,-0.5 1,-0.8 1.6,-1.1 0.6,-0.3 1.3,-0.4 2,-0.4 0.7,0 1.4,0.1 2,0.4 0.6,0.3 1.1,0.6 1.6,1.1 0.4,0.5 0.8,1 1,1.7 0.2,0.7 0.4,1.4 0.4,2.1 0,0.8 -0.1,1.5 -0.4,2.2 -0.2,0.7 -0.6,1.2 -1,1.7 -0.4,0.5 -1,0.8 -1.6,1.1 -0.6,0.3 -1.3,0.4 -2,0.4 -0.8,0.1 -1.5,-0.1 -2.1,-0.4 M 239.1,0.6 c -1.1,0.4 -2.1,1 -3,1.8 -0.8,0.8 -1.5,1.7 -2,2.9 -0.5,1.1 -0.7,2.4 -0.7,3.8 0,1.4 0.2,2.6 0.7,3.8 0.5,1.1 1.1,2.1 2,2.9 0.8,0.8 1.8,1.4 3,1.9 1.2,0.4 2.4,0.7 3.8,0.7 1.4,0 2.6,-0.2 3.8,-0.7 1.2,-0.4 2.2,-1.1 3,-1.9 0.8,-0.8 1.5,-1.8 2,-2.9 0.5,-1.1 0.7,-2.4 0.7,-3.8 0,-1.4 -0.2,-2.6 -0.7,-3.8 -0.5,-1.1 -1.1,-2.1 -2,-2.9 -0.8,-0.8 -1.8,-1.4 -3,-1.8 -1.2,-0.4 -2.4,-0.6 -3.8,-0.6 -1.4,0 -2.7,0.2 -3.8,0.6" />
  </defs>
  <defs
     id="defs105">
    <path
       id="s"
       d="m 268.4,0.5 -3.8,11.1 h -0.1 l -4,-11.1 h -5.9 v 17.3 h 3.9 L 258.4,5.5 h 0.1 l 4.4,12.3 h 2.9 l 4.5,-12.3 h 0.1 l -0.1,12.3 h 4.1 V 0.5 Z" />
  </defs>
  <defs
     id="defs122">
    <path
       id="v"
       d="m 292,0.5 -3.8,11.1 h -0.1 L 284.2,0.5 h -6 v 17.3 h 3.9 L 282,5.5 h 0.1 l 4.4,12.3 h 2.9 l 4.5,-12.3 h 0.1 l -0.1,12.3 H 298 V 0.5 Z" />
  </defs>
  <defs
     id="defs139">
    <path
       id="y"
       d="M 168.6,22.9 164.8,34 h -0.1 l -3.9,-11.1 h -6 v 17.3 h 4 l -0.1,-12.2 4.4,12.2 h 3 l 4.5,-12.2 -0.1,12.2 h 4.2 V 22.9 Z" />
  </defs>
  <defs
     id="defs156">
    <path
       id="B"
       d="m 177.8,22.9 v 17.3 h 12.1 v -3.5 h -8.1 v -3.6 h 7.2 v -3.4 h -7.2 v -3.3 h 7.6 v -3.5 z" />
  </defs>
</svg>
