<?xml version="1.0" encoding="UTF-8"?>
<svg xmlns="http://www.w3.org/2000/svg" width="299" height="81" viewBox="0 0 299 81" fill="none">
  <path d="M15.2096 43.1862C23.5169 43.1862 30.2513 36.3708 30.2513 27.9636C30.2513 19.5564 23.5169 12.741 15.2096 12.741C6.90236 12.741 0.167969 19.5564 0.167969 27.9636C0.167969 36.3708 6.90236 43.1862 15.2096 43.1862Z" fill="#2E2B21"></path>
  <path d="M88.168 38.8033V22.0071H61.7738V38.8033C61.7732 42.1747 60.6667 45.4505 58.628 48.1168C56.5892 50.7831 53.7336 52.689 50.509 53.5355C47.2844 54.3821 43.8734 54.1213 40.8111 52.7942C37.7487 51.4671 35.2083 49.1487 33.5885 46.2027L10.5225 59.1933C14.9845 67.3104 21.9832 73.6984 30.4203 77.355C38.8574 81.0115 48.2554 81.7297 57.1393 79.3967C66.0233 77.0637 73.8905 71.8117 79.5063 64.4648C85.1221 57.1179 88.1687 48.0919 88.168 38.8033V38.8033Z" fill="#2E2B21"></path>
  <path d="M129.45 26.2542C129.45 25.4176 129.7 24.5999 130.167 23.9043C130.635 23.2087 131.299 22.6665 132.077 22.3463C132.854 22.0262 133.71 21.9424 134.535 22.1056C135.36 22.2688 136.119 22.6717 136.714 23.2632C137.309 23.8548 137.714 24.6085 137.878 25.429C138.042 26.2495 137.958 27.0999 137.636 27.8728C137.314 28.6457 136.769 29.3063 136.069 29.7711C135.369 30.2359 134.547 30.4839 133.705 30.4839C132.58 30.4714 131.506 30.0217 130.71 29.2312C129.915 28.4406 129.463 27.3721 129.45 26.2542Z" fill="#2E2B21"></path>
  <path d="M140.344 44.2998C140.344 41.8393 141.078 39.4341 142.453 37.3882C143.828 35.3424 145.783 33.7479 148.07 32.8063C150.356 31.8647 152.872 31.6184 155.3 32.0984C157.727 32.5784 159.957 33.7632 161.707 35.5031C163.457 37.2429 164.649 39.4596 165.132 41.8728C165.615 44.286 165.367 46.7874 164.42 49.0606C163.473 51.3338 161.869 53.2767 159.811 54.6437C157.753 56.0107 155.334 56.7403 152.858 56.7403C151.21 56.757 149.576 56.4465 148.05 55.8272C146.524 55.2079 145.138 54.2922 143.972 53.1337C142.807 51.9752 141.886 50.5971 141.263 49.0803C140.64 47.5634 140.328 45.9382 140.344 44.2998ZM158.309 44.2998C158.284 43.2365 157.945 42.204 157.333 41.3318C156.72 40.4595 155.863 39.7862 154.868 39.3961C153.872 39.0061 152.783 38.9166 151.737 39.139C150.691 39.3613 149.734 39.8857 148.986 40.6463C148.238 41.4069 147.733 42.3698 147.533 43.4147C147.333 44.4596 147.448 45.5399 147.863 46.5203C148.278 47.5006 148.974 48.3375 149.865 48.926C150.756 49.5146 151.803 49.8287 152.872 49.8289C153.6 49.845 154.324 49.7118 154.998 49.4377C155.672 49.1636 156.282 48.7545 156.79 48.2358C157.298 47.7171 157.694 47.0999 157.951 46.4228C158.209 45.7456 158.324 45.023 158.288 44.2998H158.309Z" fill="#2E2B21"></path>
  <path d="M167.743 26.2542C167.743 25.4176 167.993 24.5999 168.46 23.9043C168.928 23.2087 169.592 22.6665 170.37 22.3463C171.147 22.0262 172.003 21.9424 172.828 22.1056C173.653 22.2688 174.412 22.6717 175.007 23.2632C175.602 23.8548 176.007 24.6085 176.171 25.429C176.335 26.2495 176.251 27.0999 175.929 27.8728C175.607 28.6457 175.062 29.3063 174.362 29.7711C173.662 30.2359 172.84 30.4839 171.998 30.4839C170.874 30.4714 169.799 30.0217 169.003 29.2312C168.208 28.4406 167.756 27.3721 167.743 26.2542ZM168.438 32.5504H175.53V56.0492H168.438V32.5504Z" fill="#2E2B21"></path>
  <path d="M202.491 41.6458V56.0699H195.399V42.6825C195.399 39.7659 193.557 38.4044 191.284 38.4044C188.684 38.4044 186.89 39.9111 186.89 43.2424V56.0699H179.799V32.5712H186.925V34.7344C188.197 32.9997 190.561 31.8731 193.682 31.8731C198.424 31.8938 202.491 35.2735 202.491 41.6458Z" fill="#2E2B21"></path>
  <path d="M230.661 32.5504V56.0492H223.57V53.8445C222.013 55.6276 219.698 56.7127 216.527 56.7127C210.34 56.7127 205.23 51.308 205.23 44.2722C205.23 37.2364 210.34 31.8662 216.527 31.8662C219.698 31.8662 222.013 32.9444 223.57 34.7275V32.5228L230.661 32.5504ZM223.57 44.2998C223.57 40.775 221.206 38.5634 217.946 38.5634C214.685 38.5634 212.321 40.775 212.321 44.2998C212.321 47.8246 214.685 50.0294 217.946 50.0294C221.206 50.0294 223.57 47.8246 223.57 44.2998Z" fill="#2E2B21"></path>
  <path d="M260.354 44.2998C260.354 51.301 255.244 56.7403 249.057 56.7403C245.887 56.7403 243.572 55.6552 242.007 53.8721V56.0768H234.895V23.1855H241.98V34.7344C243.544 32.9513 245.859 31.8731 249.029 31.8731C255.244 31.8938 260.354 37.2985 260.354 44.2998ZM253.263 44.2998C253.263 40.775 250.899 38.5634 247.639 38.5634C244.378 38.5634 242.007 40.775 242.007 44.2998C242.007 47.8246 244.371 50.0294 247.639 50.0294C250.906 50.0294 253.263 47.8246 253.263 44.2998Z" fill="#2E2B21"></path>
  <path d="M263.4 21.741H270.491V56.0422H263.4V21.741Z" fill="#2E2B21"></path>
  <path d="M286.78 50.4095C287.619 50.4342 288.455 50.2881 289.236 49.9803C290.016 49.6724 290.726 49.2094 291.32 48.6194L296.986 51.8609C294.671 55.0609 291.174 56.6989 286.683 56.6989C278.604 56.6989 273.592 51.2942 273.592 44.2584C273.592 37.2226 278.694 31.8523 286.161 31.8523C293.065 31.8523 298.168 37.1603 298.168 44.2584C298.173 45.2053 298.079 46.1502 297.89 47.0782H281.107C282.004 49.5594 284.18 50.4095 286.78 50.4095ZM291.125 41.8532C290.861 40.7492 290.215 39.7726 289.3 39.0941C288.385 38.4157 287.259 38.0786 286.12 38.1418C283.422 38.1418 281.628 39.4549 280.961 41.8532H291.125Z" fill="#2E2B21"></path>
  <path d="M130.159 32.5504V44.2998C130.195 45.0247 130.08 45.7492 129.821 46.4278C129.562 47.1064 129.165 47.7245 128.654 48.2435C128.144 48.7626 127.531 49.1712 126.855 49.444C126.178 49.7168 125.453 49.8478 124.723 49.8289C123.641 49.8625 122.576 49.5614 121.674 48.9671C120.773 48.3728 120.079 47.5147 119.689 46.5115L113.168 49.1516C114.309 51.7796 116.325 53.9378 118.876 55.2645C121.427 56.5911 124.36 57.0057 127.182 56.4388C130.005 55.8718 132.545 54.3577 134.378 52.1502C136.211 49.9427 137.225 47.176 137.251 44.3136V32.5642L130.159 32.5504Z" fill="#2E2B21"></path>
</svg>
