<svg xmlns="http://www.w3.org/2000/svg" viewBox="0 0 100 79.35"><defs><style>.cls-1{fill:#083899;}.cls-2{fill:#ebba75;}</style></defs><g id="copy"><path class="cls-1" d="M8.66,67.32V58.8L5.23,67.32H4.71L1.26,58.8v8.52H0V57.19H1.81L5,65l3.14-7.81H9.92V67.32Z"/><path class="cls-1" d="M13.09,62.26a5,5,0,1,1,5,5.24A5,5,0,0,1,13.09,62.26Zm8.77,0c0-2.37-1.48-4.11-3.74-4.11s-3.72,1.74-3.72,4.11,1.44,4.12,3.72,4.12S21.86,64.62,21.86,62.26Z"/><path class="cls-1" d="M33.51,67.32,27.6,59.24v8.08H26.34V57.19h1.29l5.83,7.91V57.19h1.26V67.32Z"/><path class="cls-1" d="M44.43,67.32l-3.85-4.56-1,1.16v3.4H38.3V57.19h1.26v5.22l4.49-5.22h1.58L41.4,62,46,67.32Z"/><path class="cls-1" d="M48.91,60.49,48.33,60a2.29,2.29,0,0,0,1-1.41.61.61,0,0,1-.22,0,.74.74,0,0,1-.73-.77.82.82,0,0,1,.81-.82c.52,0,1,.41,1,1.15A3,3,0,0,1,48.91,60.49Z"/><path class="cls-1" d="M52.75,65.89l.76-1a4.18,4.18,0,0,0,3.17,1.46c1.81,0,2.39-1,2.39-1.76,0-2.62-6-1.16-6-4.77,0-1.67,1.49-2.83,3.49-2.83a4.75,4.75,0,0,1,3.59,1.43l-.76.93a3.84,3.84,0,0,0-2.93-1.22c-1.2,0-2.09.65-2.09,1.61,0,2.28,6,1,6,4.76,0,1.45-1,3-3.74,3A5,5,0,0,1,52.75,65.89Z"/><path class="cls-1" d="M75.81,67.32V62.67H69.88v4.65H68.62V57.19h1.26v4.36h5.93V57.19h1.26V67.32Z"/><path class="cls-1" d="M80.65,67.32V57.19h1.26V67.32Z"/><path class="cls-1" d="M85.33,67.32V57.19h1.26v9H91.3v1.12Z"/><path class="cls-1" d="M94,67.32V57.19h1.26v9H100v1.12Z"/><path class="cls-2" d="M3,79.24.64,73.44h.83l2,5,2-5H6.2l-2.33,5.8Z"/><path class="cls-2" d="M15,79.24v-5.8h3.8v.65H15.68V76h3v.64h-3v2h3.08v.64Z"/><path class="cls-2" d="M32,79.24l-3.39-4.62v4.62H27.9v-5.8h.74L32,78V73.44h.72v5.8Z"/><path class="cls-2" d="M43.49,79.24V74.09H41.66v-.65h4.4v.65H44.21v5.15Z"/><path class="cls-2" d="M55,77V73.44h.73V77A1.64,1.64,0,1,0,59,77V73.44h.73V77A2.37,2.37,0,0,1,55,77Z"/><path class="cls-2" d="M72.46,79.24,71,76.94H69.82v2.3H69.1v-5.8h2.33a1.7,1.7,0,0,1,1.83,1.75,1.61,1.61,0,0,1-1.51,1.69l1.56,2.36Zm.05-4a1.08,1.08,0,0,0-1.16-1.1H69.82V76.3h1.53A1.09,1.09,0,0,0,72.51,75.19Z"/><path class="cls-2" d="M82.39,79.24v-5.8h3.8v.65H83.12V76h3v.64h-3v2h3.07v.64Z"/><path class="cls-2" d="M95,78.43l.44-.56a2.39,2.39,0,0,0,1.81.83c1,0,1.37-.55,1.37-1,0-1.5-3.44-.67-3.44-2.73,0-1,.86-1.62,2-1.62a2.72,2.72,0,0,1,2.06.82l-.44.53a2.17,2.17,0,0,0-1.68-.7c-.68,0-1.19.37-1.19.92,0,1.31,3.44.56,3.44,2.72,0,.84-.58,1.71-2.14,1.71A2.93,2.93,0,0,1,95,78.43Z"/><polygon class="cls-2" points="49.6 48.07 74.12 48.07 61.86 32.04 49.6 48.07"/><polygon class="cls-2" points="37.34 32.04 61.86 32.04 49.6 16.02 37.34 32.04"/><polygon class="cls-2" points="74.12 48.07 98.64 48.07 86.38 32.04 74.12 48.07"/><polygon class="cls-2" points="61.86 32.04 86.38 32.04 74.12 16.02 61.86 32.04"/><polygon class="cls-2" points="25.08 16.02 49.6 16.02 37.34 0 25.08 16.02"/><polygon class="cls-1" points="25.08 48.07 49.6 48.07 37.34 32.04 25.08 48.07"/><polygon class="cls-1" points="12.82 32.04 37.34 32.04 25.08 16.02 12.82 32.04"/><polygon class="cls-1" points="0.56 48.07 25.08 48.07 12.82 32.04 0.56 48.07"/></g></svg>