<?xml version="1.0" encoding="UTF-8"?>
<svg version="1.1" xmlns="http://www.w3.org/2000/svg" width="1200" height="441">
<path d="M0 0 C3.81324751 1.2710825 4.22300115 2.53928967 6.265625 5.94140625 C6.90048828 6.98748047 7.53535156 8.03355469 8.18945312 9.11132812 C8.87631531 10.26171086 9.5631639 11.4121017 10.25 12.5625 C10.96707567 13.74866609 11.68518932 14.93420525 12.40429688 16.11914062 C13.51302683 17.94615968 14.62120268 19.77348364 15.72631836 21.60269165 C19.25498735 27.4412128 22.86996727 33.22402293 26.5 39 C31.70800037 47.30822938 36.86918807 55.64389354 42 64 C47.81209212 73.46500435 53.67087803 82.89926576 59.56640625 92.3125 C64.09996382 99.55280185 68.60302233 106.81138857 73.09326172 114.07861328 C77.14376869 120.62912912 81.22470421 127.16020461 85.3125 133.6875 C92.64893045 145.41133832 99.92243888 157.1726947 107.13818359 168.97119141 C108.87501711 171.79667746 110.63154882 174.60875228 112.39453125 177.41796875 C121.16505158 191.51238669 129.15038189 206.45772536 132 223 C132.15210938 223.87269531 132.30421875 224.74539062 132.4609375 225.64453125 C136.0430902 252.8290901 119.87593906 279.97337209 105.47607422 301.76513672 C103.6157949 304.58170914 101.78504129 307.41676332 99.95483398 310.25292969 C98.61135554 312.33363175 97.26271011 314.41092695 95.9140625 316.48828125 C91.97173851 322.57613402 88.09249064 328.70415647 84.20507812 334.82714844 C80.99598653 339.87731954 77.76977971 344.91523484 74.50927734 349.93237305 C72.74317742 352.65004886 70.98455623 355.37249538 69.22851562 358.09667969 C68.41187687 359.36188552 67.59287735 360.62557081 66.77148438 361.88769531 C65.62911271 363.6479947 64.500342 365.41628052 63.375 367.1875 C62.74335937 368.17105469 62.11171875 369.15460938 61.4609375 370.16796875 C59.91411253 373.16649309 59.36583269 375.6630126 59 379 C62.85127429 378.66989078 64.96490643 377.60233084 67.5703125 374.74609375 C73.28657544 367.76475622 78.14295553 360.28177819 82.86376953 352.61254883 C87.04242121 345.85352071 91.45210033 339.25687296 95.88598633 332.66333008 C98.90399989 328.16910974 101.86802021 323.65585291 104.72412109 319.05712891 C113.43725309 305.0903184 122.76619755 295.88672748 139 292 C145.99336077 291.05699417 153.09347593 291.06434566 160.14013672 290.94970703 C162.38099329 290.89988127 164.62136325 290.81779923 166.85986328 290.70361328 C184.83371551 289.7947786 184.83371551 289.7947786 189.90527344 293.32696533 C193.16422762 296.74529737 195.15342449 300.71700484 197.06518555 304.99798584 C198.49167633 308.05298221 200.32136868 310.73068352 202.1875 313.5390625 C203.46063471 315.56626483 204.7315088 317.59488883 206 319.625 C206.65355469 320.66011719 207.30710937 321.69523437 207.98046875 322.76171875 C208.60566406 323.76074219 209.23085937 324.75976562 209.875 325.7890625 C210.42929688 326.67287598 210.98359375 327.55668945 211.5546875 328.46728516 C212.95628226 330.92339057 214.01969344 333.3511498 215 336 C213.40671875 336.25523437 213.40671875 336.25523437 211.78125 336.515625 C201.4720758 338.24986721 191.34098337 340.0353729 184.54327393 348.89956665 C182.88368022 351.30910877 181.28226345 353.74902929 179.6953125 356.20703125 C179.09871826 357.11669647 178.50212402 358.02636169 177.88745117 358.96359253 C175.95887087 361.90823547 174.04196612 364.86028615 172.125 367.8125 C170.8066101 369.82904422 169.48743596 371.84507592 168.16748047 373.8605957 C162.75671626 382.13001218 157.3743424 390.41781863 152 398.7109375 C151.32308105 399.75403076 150.64616211 400.79712402 149.94873047 401.87182617 C148.78676121 403.66580094 147.62906444 405.46255545 146.47705078 407.26293945 C136.26705568 423.08566536 125.13476791 434.96560271 106.2016573 439.580549 C102.56233713 440.27389782 98.98780739 440.2684444 95.29333496 440.24050903 C94.45345488 440.24221788 93.6135748 440.24392673 92.74824381 440.24568737 C89.95381857 440.24896308 87.15963723 440.23801038 84.36523438 440.22705078 C82.35422776 440.22648625 80.34322073 440.22680404 78.33221436 440.22793579 C72.88654447 440.22850868 67.44096302 440.2167647 61.99531364 440.20278788 C56.29916713 440.19026986 50.6030185 440.18910917 44.90686035 440.18673706 C34.12648682 440.18052545 23.34615393 440.16411892 12.56579828 440.14403808 C0.29015672 440.12166918 -11.98548681 440.11068315 -24.26114368 440.10064721 C-49.50745164 440.07975243 -74.75372354 440.04458262 -100 440 C-99.21281772 438.56905761 -98.42390613 437.13906646 -97.63427734 435.70947266 C-97.19514008 434.91304352 -96.75600281 434.11661438 -96.30355835 433.29605103 C-94.55583191 430.21765482 -92.61556219 427.30147564 -90.625 424.375 C-89.7475559 423.07498883 -88.87133649 421.77415052 -87.99609375 420.47265625 C-87.28235596 419.41135498 -87.28235596 419.41135498 -86.55419922 418.32861328 C-83.56283294 413.84673273 -80.62767242 409.32805923 -77.6875 404.8125 C-77.04506348 403.82620605 -76.40262695 402.83991211 -75.74072266 401.82373047 C-71.12642401 394.73628805 -66.51781333 387.64514287 -61.91040039 380.55322266 C-58.44919281 375.22642577 -54.98315802 369.90280332 -51.51269531 364.58203125 C-50.25876473 362.65929445 -49.00550447 360.73612032 -47.75292969 358.8125 C-44.4585895 353.75583283 -41.15012848 348.70917006 -37.8203125 343.67578125 C-37.13888184 342.64171143 -36.45745117 341.6076416 -35.75537109 340.54223633 C-34.45295353 338.56641148 -33.14622735 336.59341759 -31.83447266 334.6237793 C-25.67526665 325.26047391 -22.24174333 317.96282059 -24.48046875 306.55078125 C-27.66113553 296.26608713 -34.33146262 287.05184391 -40 278 C-40.49064941 277.21560547 -40.98129883 276.43121094 -41.48681641 275.62304688 C-43.91717356 271.74701069 -46.36274789 267.88085199 -48.81640625 264.01953125 C-58.42041087 248.89916443 -67.83780058 233.66251787 -77.20751953 218.39624023 C-81.30122394 211.73477661 -85.43810524 205.10325167 -89.625 198.5 C-91.01862584 196.29647438 -92.41181025 194.09267075 -93.8046875 191.88867188 C-94.86685518 190.21037752 -95.93313463 188.53468703 -97 186.859375 C-102.25696503 178.41790231 -104.4566047 170.79458122 -102.34765625 160.95703125 C-100.08498212 152.82888428 -96.60635192 146.01603805 -92 139 C-91.42652832 138.11876465 -90.85305664 137.2375293 -90.26220703 136.32958984 C-88.27470543 133.2917298 -86.26641676 130.26873622 -84.25 127.25 C-83.58766357 126.24783447 -82.92532715 125.24566895 -82.24291992 124.21313477 C-81.6110376 123.28170654 -80.97915527 122.35027832 -80.328125 121.390625 C-79.47589355 120.1226709 -79.47589355 120.1226709 -78.60644531 118.82910156 C-77.81125488 117.92369629 -77.81125488 117.92369629 -77 117 C-76.01 117 -75.02 117 -74 117 C-72.33691406 119.18945313 -72.33691406 119.18945313 -70.515625 122.28125 C-70.18341446 122.83734451 -69.85120392 123.39343903 -69.50892639 123.96638489 C-68.79001506 125.17246207 -68.0761057 126.38153152 -67.36660767 127.59317017 C-65.85726729 130.17066927 -64.32466468 132.73404112 -62.79316711 135.29841614 C-62.00782669 136.61391478 -61.22372989 137.9301566 -60.44084167 139.24711609 C-56.82298862 145.32687116 -53.0839418 151.32690841 -49.3125 157.3125 C-44.47983083 165.00511278 -39.70822734 172.73059772 -35 180.5 C-30.22875722 188.37312252 -25.3927738 196.2018265 -20.5 204 C-15.02169912 212.73139501 -9.62589397 221.50824514 -4.28930664 230.3269043 C-1.2213656 235.38594211 1.88088195 240.420036 5.03515625 245.42578125 C5.70740234 246.493125 6.37964844 247.56046875 7.07226562 248.66015625 C8.35717712 250.695335 9.64596564 252.72807355 10.93945312 254.7578125 C19.08948578 267.66575031 25.27257034 279.35184755 22 295 C19.48633639 302.95786955 15.32006004 309.63706312 10.75 316.5625 C9.68014318 318.20809267 8.61030068 319.85369485 7.54130554 321.49984741 C6.43519671 323.20095604 5.32546561 324.89966036 4.21533203 326.59814453 C0.66495531 332.0390195 -2.81859669 337.52277546 -6.3125 343 C-11.15730514 350.57633911 -16.02347599 358.13812288 -20.91918945 365.68164062 C-25.24833575 372.36251177 -29.51359054 379.08372611 -33.78051758 385.80444336 C-38.05264298 392.52775915 -42.36309285 399.22510759 -46.71289062 405.8984375 C-48.99208939 409.36982364 -48.99208939 409.36982364 -51 413 C-32.38017951 413.04677747 -13.760371 413.08201698 4.85949612 413.10362434 C13.50555323 413.1139249 22.15157378 413.12796185 30.79760742 413.15087891 C38.33589121 413.17085021 45.8741485 413.18372531 53.412458 413.18817699 C57.40174424 413.19077804 61.39095471 413.19686611 65.3802166 413.21146011 C69.14024677 413.22510319 72.90017043 413.22920913 76.66022301 413.22621536 C78.68742613 413.22702209 80.71461783 413.23774837 82.74179077 413.24884033 C94.61795864 413.2221645 103.48282066 411.72240137 112.5625 403.75 C119.14493696 396.32366086 124.53872118 388.26347668 129.8125 379.875 C131.2241289 377.64771996 132.63688578 375.4211544 134.05078125 373.1953125 C134.72834473 372.12829102 135.4059082 371.06126953 136.10400391 369.96191406 C138.51868834 366.1897081 140.9939497 362.4619051 143.5 358.75 C146.50780652 354.29144915 149.39253863 349.78188412 152.1875 345.1875 C155.57679414 339.62523098 159.13933017 334.24630628 163 329 C163.41765625 328.42636719 163.8353125 327.85273438 164.265625 327.26171875 C166.58401775 324.27099211 169.13796552 322.0540315 172.16015625 319.828125 C172.87953369 319.29606445 173.59891113 318.76400391 174.34008789 318.21582031 C174.88785889 317.81459961 175.43562988 317.41337891 176 317 C171.85440907 316.88272727 167.70925138 316.81239067 163.5625 316.75 C161.81549805 316.69972656 161.81549805 316.69972656 160.03320312 316.6484375 C152.71950621 316.56602965 147.34791742 317.29726295 141 321 C140.17628906 321.46019531 139.35257813 321.92039062 138.50390625 322.39453125 C131.84136768 327.26073145 127.83534303 333.65187069 123.54150391 340.53564453 C120.44405499 345.48744202 117.27521701 350.39417554 114.125 355.3125 C113.43857422 356.38669189 112.75214844 357.46088379 112.04492188 358.56762695 C107.87629334 365.08825724 103.69610897 371.60018833 99.4375 378.0625 C98.98584473 378.75706299 98.53418945 379.45162598 98.06884766 380.16723633 C93.58387087 386.92450201 88.68803955 393.4389812 81.75 397.8125 C80.91984375 398.35519531 80.0896875 398.89789063 79.234375 399.45703125 C70.17410374 403.7792621 61.37222173 404.42197829 51.45703125 404.29296875 C50.20742111 404.28872391 48.95781097 404.28447906 47.67033386 404.28010559 C44.38723578 404.26626728 41.1046007 404.23943162 37.82165527 404.20599365 C34.4560302 404.17501412 31.09033667 404.16154142 27.72460938 404.14648438 C21.1495623 404.11358191 14.57481892 404.06350882 8 404 C9.48535744 399.27251684 11.42283329 395.53921003 14.25 391.5 C18.56614681 385.18241737 22.7224632 378.77869108 26.8125 372.3125 C31.29199631 365.24327596 35.80214273 358.19670984 40.375 351.1875 C46.02927272 342.51837012 51.62574578 333.81316808 57.18115234 325.08032227 C60.12982974 320.45072005 63.0866719 315.83555716 66.1796875 311.30078125 C79.66916613 291.433051 87.98394941 269.48555336 84.44921875 245.21875 C80.99488335 229.89525267 71.58769221 216.78813371 63.37231445 203.64624023 C58.57130893 195.96532069 53.89858798 188.21108087 49.25 180.4375 C43.2424152 170.39569925 37.20640353 160.37228186 31.125 150.375 C26.39410061 142.59675679 21.67461942 134.81224524 17 127 C12.65774866 119.74518077 8.28465818 112.50941651 3.89529419 105.28302002 C2.81689345 103.50723462 1.73931976 101.73094948 0.66186523 99.95458984 C-2.74279956 94.34417424 -6.15592131 88.73930912 -9.59489441 83.14984131 C-11.16763535 80.59242274 -12.73593818 78.03229687 -14.30386353 75.47192383 C-15.05226921 74.25261912 -15.80285834 73.0346516 -16.55575562 71.81811523 C-17.60385327 70.12431273 -18.64388574 68.42552774 -19.68359375 66.7265625 C-20.57389282 65.28144287 -20.57389282 65.28144287 -21.48217773 63.80712891 C-25.61912812 56.1560664 -27.10349874 47.79182124 -24.78491211 39.35205078 C-21.63606048 29.91626958 -14.767648 21.57146782 -9.1875 13.4375 C-8.29456685 12.12979964 -7.40198595 10.82185868 -6.50976562 9.51367188 C-4.34389243 6.33966112 -2.17328694 3.16893855 0 0 Z " fill="#FCB12F" transform="translate(985,0)"/>
<path d="M0 0 C274.23 0 548.46 0 831 0 C829.54772328 3.63069181 828.30172575 6.3270362 826.25 9.5390625 C825.7240625 10.36664063 825.198125 11.19421875 824.65625 12.046875 C824.1096875 12.89765625 823.563125 13.7484375 823 14.625 C822.4534375 15.48351562 821.906875 16.34203125 821.34375 17.2265625 C819.25510208 20.50287296 817.15530994 23.76703509 815 27 C812.60665282 27.37401349 812.60665282 27.37401349 809.52579916 27.37259549 C807.76670475 27.38270831 807.76670475 27.38270831 805.97207308 27.39302543 C804.66978557 27.38514439 803.36749806 27.37726335 802.0257473 27.36914349 C800.63348988 27.37136042 799.24123405 27.37489406 797.84898293 27.37963298 C793.99257573 27.38889078 790.13640359 27.37927321 786.2800138 27.36679858 C782.09621041 27.35653909 777.91243205 27.36360009 773.72862399 27.36853105 C766.3859317 27.37476777 759.04331214 27.36979465 751.70062828 27.35761642 C740.78223281 27.33955781 729.86388348 27.33860467 718.9454758 27.34124239 C700.58159088 27.34519007 682.21773827 27.33513724 663.85386276 27.31719017 C645.6632102 27.29945783 627.47257108 27.28789612 609.28190994 27.28463173 C608.1521748 27.28442551 607.02243965 27.28421929 605.85847011 27.28400682 C600.12145143 27.28299187 594.38443274 27.2820877 588.64741404 27.2812262 C547.97945176 27.27491978 507.31150706 27.25469328 466.64355469 27.22631836 C427.12760512 27.19877898 387.61166036 27.17752133 348.09570312 27.16479492 C346.26961435 27.16420305 346.26961435 27.16420305 344.4066349 27.16359923 C332.18142323 27.15964377 319.95621153 27.15581632 307.7309998 27.15208265 C282.82535581 27.14447338 257.91971214 27.13600962 233.0140686 27.12702942 C231.86886971 27.12661755 230.72367082 27.12620568 229.54376893 27.12578133 C153.02917185 27.09816494 76.514585 27.05039763 0 27 C0 18.09 0 9.18 0 0 Z " fill="#FCB12F" transform="translate(0,414)"/>
<path d="M0 0 C3.88862764 3.76754654 6.68468061 7.48168538 9.3125 12.1875 C13.65202136 19.7556118 18.1621818 27.2048979 22.75 34.625 C27.86008667 42.90066948 32.95187449 51.18637736 38 59.5 C42.97161921 67.68429033 47.97588019 75.84783625 53 84 C58.60132638 93.08874224 64.17126041 102.19570226 69.71313477 111.32080078 C73.42392943 117.4256058 77.16051507 123.51390007 80.9128418 129.59326172 C83.60341831 133.95437706 86.28652968 138.3200423 88.96679688 142.6875 C90.3388646 144.92287643 91.71260219 147.15722863 93.08789062 149.390625 C95.13012564 152.71332414 97.16023596 156.04315052 99.1875 159.375 C100.10486938 160.86169189 100.10486938 160.86169189 101.04077148 162.37841797 C111.67837682 179.95410754 116.35302685 198.33247622 111.5 218.625 C106.75860165 234.13332376 97.77696069 247.52446445 89 261 C88.11525713 262.36808348 87.2311154 263.73655595 86.34765625 265.10546875 C84.58179682 267.83963829 82.81139067 270.57080144 81.0390625 273.30078125 C77.37495181 278.95464942 73.75233818 284.63500177 70.125 290.3125 C66.30011399 296.29576266 62.4739633 302.27803065 58.61328125 308.23828125 C58.08613525 309.05417725 57.55898926 309.87007324 57.01586914 310.71069336 C55.96613566 312.31638777 54.90149722 313.91243887 53.82202148 315.49829102 C50.79452582 319.98680103 48.2682628 324.43752004 45.984375 329.3515625 C39.6695547 342.05123984 39.6695547 342.05123984 34 346 C23.59615816 348.74623933 12.53855862 347.42490234 2 346 C4.66679727 340.4503455 7.59903852 335.3138904 11 330.1875 C11.98140616 328.68941577 12.96183966 327.19069399 13.94140625 325.69140625 C14.69768311 324.53535889 14.69768311 324.53535889 15.46923828 323.35595703 C17.99502544 319.46858126 20.46716185 315.54776428 22.9375 311.625 C23.68700928 310.43583984 23.68700928 310.43583984 24.45166016 309.22265625 C25.46563848 307.61331153 26.4793104 306.00377371 27.49267578 304.39404297 C29.95065635 300.49009781 32.41245606 296.58856779 34.875 292.6875 C35.36258789 291.9145459 35.85017578 291.1415918 36.35253906 290.34521484 C39.67434457 285.08407064 43.01844818 279.83755252 46.37060547 274.59570312 C48.72332431 270.91076751 51.06499641 267.21893621 53.40185547 263.52392578 C54.41834521 261.91859873 55.43786658 260.31518428 56.46142578 258.71435547 C63.1545238 248.59897805 63.1545238 248.59897805 66 237 C66.07863281 236.01773438 66.15726563 235.03546875 66.23828125 234.0234375 C66.865637 219.00274837 60.523141 207.45005149 53 195 C52.40493652 194.01080566 51.80987305 193.02161133 51.19677734 192.00244141 C46.53154441 184.25794621 41.82627363 176.53817259 37.11315918 168.82275391 C33.94505673 163.63511208 30.78330117 158.4436138 27.625 153.25 C27.10847366 152.40103149 27.10847366 152.40103149 26.58151245 151.53491211 C20.24972867 141.1221786 14.02937681 130.64487477 7.82388306 120.15652466 C3.56060494 112.95340689 -0.70298535 105.75604679 -5.1875 98.6875 C-9.37594771 92.08485787 -13.39923237 85.38521258 -17.3968811 78.66592407 C-18.12512483 77.44235293 -18.85457301 76.21949776 -19.58529663 74.99740601 C-20.61271682 73.27786082 -21.63457636 71.55499696 -22.65625 69.83203125 C-23.25244141 68.82889893 -23.84863281 67.8257666 -24.46289062 66.79223633 C-27.30050178 61.63757325 -28.33334057 57.72507922 -28.4375 51.8125 C-28.47746094 50.58144531 -28.51742187 49.35039063 -28.55859375 48.08203125 C-27.63438114 36.52302401 -17.52875367 25.6159649 -11.1875 16.375 C-10.10164888 14.78293706 -9.01635761 13.19049213 -7.93164062 11.59765625 C-5.294197 7.72733482 -2.64922166 3.86226788 0 0 Z " fill="#FCB12F" transform="translate(949,57)"/>
<path d="M0 0 C2.01361047 1.42407433 3.83953864 2.93790362 5.6796875 4.578125 C6.27136719 5.05507812 6.86304688 5.53203125 7.47265625 6.0234375 C16.13669939 13.63555487 20.96383752 25.85536048 21.890625 37.1484375 C22.35861985 49.78429847 18.45253611 62.02242114 10.4296875 71.828125 C6.65561914 75.87993865 2.47059772 78.8357982 -2.3203125 81.578125 C-3.31611328 82.1659375 -3.31611328 82.1659375 -4.33203125 82.765625 C-15.95188358 88.78581516 -29.74775221 88.42019977 -41.96484375 84.79296875 C-54.423657 80.37209953 -63.50129401 70.93600537 -69.27734375 59.265625 C-73.79479472 47.6251521 -74.21687385 34.03219769 -69.640625 22.3515625 C-62.87821366 8.14649726 -53.96828455 0.24514498 -39.3203125 -5.421875 C-26.21451872 -9.21345674 -11.47793375 -7.03361597 0 0 Z M-47.62890625 21.42578125 C-52.93520435 28.1781375 -54.8817837 35.01568912 -54.3203125 43.578125 C-52.79565289 52.01270981 -49.12766494 59.23214381 -41.96875 64.21484375 C-34.14424675 68.66232198 -27.29779909 69.43175353 -18.3203125 68.578125 C-12.20075065 66.63757973 -7.48719415 63.48033871 -3.3203125 58.578125 C-2.6190625 57.85625 -1.9178125 57.134375 -1.1953125 56.390625 C2.66203755 50.60459992 4.528614 43.49081224 3.6796875 36.578125 C1.32945664 27.2891173 -2.8447348 21.04898118 -10.3828125 15.203125 C-23.3345551 8.03833122 -37.70319887 10.65789264 -47.62890625 21.42578125 Z " fill="#1C4786" transform="translate(598.3203125,179.421875)"/>
<path d="M0 0 C9.054375 -0.061875 18.10875 -0.12375 27.4375 -0.1875 C30.27915771 -0.21481201 33.12081543 -0.24212402 36.04858398 -0.27026367 C38.32274959 -0.27903264 40.59691994 -0.28667561 42.87109375 -0.29296875 C44.03419067 -0.30831665 45.1972876 -0.32366455 46.39562988 -0.33947754 C55.4933515 -0.34238138 63.6637623 0.65323847 70.4921875 7.1640625 C76.12626371 14.02420711 76.64297992 21.82986457 76.3828125 30.44140625 C75.52086832 38.453969 71.7992071 44.49895265 66 50 C61.74193548 53 61.74193548 53 59 53 C62.25132565 58.1277126 65.97815127 62.72525692 69.875 67.375 C83 83.06854839 83 83.06854839 83 86 C64.09891937 88.51917517 64.09891937 88.51917517 57.81201172 84.65527344 C53.93689775 81.03522248 51.14551113 76.66507931 48.37792969 72.171875 C46.28550294 68.87381895 43.8363394 65.90116574 41.375 62.875 C40.48830162 61.74551322 39.60418136 60.61399771 38.72265625 59.48046875 C36.78261605 56.99548143 34.83041234 54.52059677 32.87109375 52.05078125 C32.35949707 51.40447754 31.84790039 50.75817383 31.32080078 50.09228516 C30.33269415 48.84443668 29.34284783 47.59796334 28.35107422 46.35302734 C25 42.11226565 25 42.11226565 25 41 C25.60473145 40.98541748 26.20946289 40.97083496 26.83251953 40.95581055 C29.59729265 40.88090812 32.36091357 40.78438927 35.125 40.6875 C36.55199219 40.65366211 36.55199219 40.65366211 38.0078125 40.61914062 C43.4458997 40.41143591 47.2207096 39.84772415 52 37 C52.66 37 53.32 37 54 37 C55.9593426 31.46773854 56.30237833 27.76767545 55 22 C53.17890734 19.23898854 51.95798903 17.47899452 49 16 C34.15 15.505 34.15 15.505 19 15 C19 38.43 19 61.86 19 86 C12.73 86 6.46 86 0 86 C0 57.62 0 29.24 0 0 Z " fill="#1C4886" transform="translate(633,178)"/>
<path d="M0 0 C13.86 -0.0928125 13.86 -0.0928125 28 -0.1875 C32.35445313 -0.22846802 32.35445313 -0.22846802 36.796875 -0.27026367 C39.11457911 -0.27903089 41.43228786 -0.28667427 43.75 -0.29296875 C44.93980469 -0.30831665 46.12960937 -0.32366455 47.35546875 -0.33947754 C56.35908564 -0.34230058 63.66591623 0.80416988 70.45703125 7.16015625 C75.94342467 13.70215955 76.64772822 21.31344957 76.38671875 29.59375 C75.50494499 37.36048457 72.49580586 43.50419414 67 49 C61.63157895 53 61.63157895 53 59 53 C62.12471217 57.88853996 65.62277244 62.33968353 69.3125 66.8125 C70.4693103 68.22740667 71.62556421 69.64276843 72.78125 71.05859375 C73.33425781 71.73519043 73.88726562 72.41178711 74.45703125 73.10888672 C76.42373809 75.51934735 78.37875122 77.93800103 80.3125 80.375 C80.84488281 81.04273438 81.37726563 81.71046875 81.92578125 82.3984375 C83 84 83 84 83 86 C64.24377947 88.67842126 64.24377947 88.67842126 57.71386719 84.55712891 C53.57859059 80.67685079 50.51053091 76.03955681 47.48046875 71.27441406 C45.29314663 67.91407553 42.77794726 64.85642489 40.25 61.75 C39.37041738 60.62886809 38.49407251 59.50518794 37.62109375 58.37890625 C36.2686208 56.63534449 34.91585533 54.8920747 33.55908203 53.15185547 C32.14072277 51.33258344 30.72596447 49.51057658 29.3125 47.6875 C28.87776367 47.1296582 28.44302734 46.57181641 27.99511719 45.99707031 C25 42.11541803 25 42.11541803 25 41 C25.56920166 40.98541748 26.13840332 40.97083496 26.72485352 40.95581055 C29.33803828 40.88070835 31.95003099 40.78425811 34.5625 40.6875 C35.90538086 40.65366211 35.90538086 40.65366211 37.27539062 40.61914062 C43.57129832 40.36545936 49.07352123 39.73138019 53.875 35.25 C56.18497988 30.63004025 56.36622519 27.15650059 54.8125 22.25 C53.06878159 19.12333251 52.09337739 17.68729676 49 16 C39.27704018 13.56926004 29.01479293 14.38518434 19 14 C19 37.76 19 61.52 19 86 C12.73 86 6.46 86 0 86 C0 57.62 0 29.24 0 0 Z " fill="#1C4786" transform="translate(321,293)"/>
<path d="M0 0 C1.97641983 0.01061211 1.97641983 0.01061211 3.99276733 0.0214386 C7.46194654 0.04034745 10.9300455 0.08930192 14.39880371 0.1449585 C17.95191848 0.19650469 21.50521125 0.21902728 25.05859375 0.24414062 C32.00569144 0.29744239 38.95190108 0.38524043 45.8984375 0.48828125 C45.8984375 5.76828125 45.8984375 11.04828125 45.8984375 16.48828125 C43.62030151 16.51015503 43.62030151 16.51015503 41.29614258 16.5324707 C35.65837118 16.59046683 30.02099862 16.66770045 24.38354492 16.75073242 C21.94415767 16.78397542 19.50469362 16.81200926 17.06518555 16.8347168 C13.55744718 16.86827342 10.05041225 16.92059174 6.54296875 16.9765625 C4.90833427 16.98614738 4.90833427 16.98614738 3.24067688 16.9959259 C-3.96272172 17.02182641 -3.96272172 17.02182641 -10.1015625 20.48828125 C-11.89165755 24.06847136 -11.56795147 28.05024858 -10.3515625 31.80078125 C-8.72979706 33.99016459 -7.671416 34.51735547 -5.1015625 35.48828125 C-2.4200958 35.68942294 0.1659785 35.78910478 2.84765625 35.796875 C4.4342482 35.82205144 6.02083666 35.84744921 7.60742188 35.87304688 C10.09105381 35.90166184 12.57462451 35.92569523 15.05834961 35.94458008 C35.48304557 36.12998131 35.48304557 36.12998131 42.01953125 41.1015625 C42.67115234 41.94267578 42.67115234 41.94267578 43.3359375 42.80078125 C43.78839844 43.35378906 44.24085937 43.90679687 44.70703125 44.4765625 C47.71452581 49.55479101 48.25827067 54.56462465 48.2109375 60.36328125 C48.20356567 61.42446167 48.20356567 61.42446167 48.19604492 62.50708008 C48.04019983 69.44018881 47.08649375 73.96360096 42.4609375 79.30078125 C41.1925 80.38359375 41.1925 80.38359375 39.8984375 81.48828125 C39.2590625 82.04515625 38.6196875 82.60203125 37.9609375 83.17578125 C33.44331993 86.0506288 28.98434473 86.73758888 23.70947266 86.71533203 C22.50868073 86.71518097 21.30788879 86.71502991 20.07070923 86.71487427 C18.14852066 86.69939041 18.14852066 86.69939041 16.1875 86.68359375 C14.85086276 86.67985915 13.51422276 86.67701429 12.17758179 86.67501831 C8.67588618 86.66741702 5.174359 86.64779913 1.67272949 86.62561035 C-1.90695925 86.60507599 -5.48667546 86.59600043 -9.06640625 86.5859375 C-16.07820076 86.56454952 -23.08985618 86.52939635 -30.1015625 86.48828125 C-30.1015625 81.20828125 -30.1015625 75.92828125 -30.1015625 70.48828125 C-28.55251221 70.49875488 -27.00346191 70.50922852 -25.4074707 70.52001953 C-19.65814527 70.55623051 -13.90882992 70.57918586 -8.15942383 70.59814453 C-5.67145085 70.60819957 -3.18348968 70.62184541 -0.69555664 70.63916016 C2.88137731 70.66342991 6.45815495 70.67476944 10.03515625 70.68359375 C11.70260139 70.69907761 11.70260139 70.69907761 13.4037323 70.71487427 C14.96478447 70.71510086 14.96478447 70.71510086 16.55737305 70.71533203 C17.92638008 70.72199387 17.92638008 70.72199387 19.32304382 70.72879028 C22.19455777 70.46062738 24.31929887 69.76670918 26.8984375 68.48828125 C28.03918468 66.58556565 28.03918468 66.58556565 28.3984375 64.30078125 C28.57375 63.56472656 28.7490625 62.82867187 28.9296875 62.0703125 C28.88586404 58.44939924 27.36673084 55.76059407 25.8984375 52.48828125 C24.79443604 52.47369873 23.69043457 52.45911621 22.55297852 52.4440918 C18.42082825 52.38571468 14.28920066 52.30848732 10.1574707 52.22583008 C8.37598207 52.19276487 6.59439332 52.16467683 4.81274414 52.1418457 C2.23801364 52.10795818 -0.3358143 52.05562982 -2.91015625 52 C-3.69490829 51.99361008 -4.47966034 51.98722015 -5.28819275 51.9806366 C-12.34287504 51.79692408 -18.40375669 50.16804713 -24.4140625 46.42578125 C-30.75376174 39.49634254 -31.71505808 32.00908923 -31.42578125 22.83203125 C-30.78254245 16.19814676 -29.1164953 10.11744998 -24.1015625 5.48828125 C-16.26922217 0.22698234 -9.23610403 -0.18904522 0 0 Z " fill="#1C4886" transform="translate(31.1015625,177.51171875)"/>
<path d="M0 0 C1.80130119 0.00022659 1.80130119 0.00022659 3.63899231 0.00045776 C5.56892281 0.01594162 5.56892281 0.01594162 7.5378418 0.03173828 C8.87590829 0.03547166 10.21397752 0.0383171 11.55204773 0.04031372 C15.06197753 0.04792462 18.57174 0.06755096 22.081604 0.08972168 C25.66790504 0.11023514 29.25423329 0.11932716 32.84057617 0.12939453 C39.86864635 0.15079951 46.89657817 0.18596071 53.92456055 0.22705078 C53.92456055 5.50705078 53.92456055 10.78705078 53.92456055 16.22705078 C52.37027344 16.2416333 50.81598633 16.25621582 49.21459961 16.27124023 C43.45199491 16.32918011 37.68978272 16.40641385 31.92749023 16.48950195 C29.43276333 16.52277147 26.93796079 16.55079701 24.44311523 16.57348633 C20.85847719 16.60699428 17.27453362 16.6593099 13.69018555 16.71533203 C12.01499847 16.72491692 12.01499847 16.72491692 10.30596924 16.73469543 C9.26519226 16.75448959 8.22441528 16.77428375 7.15209961 16.79467773 C6.23720764 16.80578079 5.32231567 16.81688385 4.37969971 16.82832336 C1.41458195 17.30987397 0.05156352 18.12056823 -2.07543945 20.22705078 C-3.13949633 24.62515253 -3.61270932 26.92629215 -1.88793945 31.10205078 C0.10262299 33.43581365 1.06953348 34.16620313 3.92456055 35.22705078 C6.617597 35.42817766 9.21568653 35.52787379 11.90893555 35.53564453 C13.50008486 35.56081597 15.09123061 35.58621382 16.68237305 35.61181641 C19.17487567 35.64046305 21.66731603 35.66449598 24.15991211 35.68334961 C26.57658564 35.70517546 28.99252202 35.74463511 31.40893555 35.78564453 C32.50936188 35.78581825 32.50936188 35.78581825 33.63201904 35.78599548 C39.58065378 35.89818992 45.20971572 37.01534322 49.94799805 40.87548828 C55.62499872 48.12761053 57.33358952 54.76439301 56.7487793 64.00439453 C55.72414215 71.38385194 53.14204228 77.9386903 47.1159668 82.63720703 C42.06711658 85.66651716 37.8385805 86.35293544 32.05444336 86.34057617 C30.87352112 86.34050064 29.69259888 86.34042511 28.47589111 86.34034729 C27.20598328 86.335186 25.93607544 86.33002472 24.62768555 86.32470703 C22.67182526 86.32258461 22.67182526 86.32258461 20.67645264 86.32041931 C17.21752999 86.31660945 13.75864964 86.30679229 10.29974365 86.29571533 C6.76713635 86.28546824 3.23452219 86.28091463 -0.2980957 86.27587891 C-7.22389603 86.2651686 -14.14966135 86.24758424 -21.07543945 86.22705078 C-21.07543945 80.94705078 -21.07543945 75.66705078 -21.07543945 70.22705078 C6.14956055 69.73205078 6.14956055 69.73205078 33.92456055 69.22705078 C36.95965903 63.75804181 36.95965903 63.75804181 36.73706055 58.47705078 C36.64038086 57.71908203 36.54370117 56.96111328 36.4440918 56.18017578 C36.04156284 54.0096698 36.04156284 54.0096698 33.92456055 52.22705078 C31.24766047 52.01749357 28.66602436 51.92592554 25.98706055 51.91845703 C24.35294288 51.89326563 22.71882838 51.86786814 21.0847168 51.84228516 C18.51555451 51.81372806 15.94644835 51.78971231 13.37719727 51.77075195 C-7.3494589 51.58795241 -7.3494589 51.58795241 -15.95043945 46.53955078 C-22.07355269 39.87616284 -23.47561167 32.01594026 -23.3449707 23.20361328 C-22.69234465 15.99635163 -20.53690355 10.09403974 -15.13793945 5.16455078 C-10.3685257 1.286439 -6.12789759 -0.02580167 0 0 Z " fill="#1C4786" transform="translate(744.075439453125,292.77294921875)"/>
<path d="M0 0 C1.02075623 0.00007553 2.04151245 0.00015106 3.09320068 0.00022888 C4.18811829 0.00539017 5.28303589 0.01055145 6.41113281 0.01586914 C8.10064056 0.01799156 8.10064056 0.01799156 9.82427979 0.02015686 C13.42096617 0.0257534 17.01759025 0.03830529 20.61425781 0.05102539 C23.053059 0.05604084 25.49186116 0.06060367 27.93066406 0.06469727 C33.90855264 0.0757217 39.88639467 0.09298399 45.86425781 0.11352539 C45.86425781 5.39352539 45.86425781 10.67352539 45.86425781 16.11352539 C44.55344238 16.12287109 43.24262695 16.1322168 41.89208984 16.1418457 C36.99022471 16.18196763 32.08897261 16.24778716 27.1875 16.32104492 C25.0733228 16.34912636 22.95904312 16.37040415 20.84472656 16.38452148 C17.7908123 16.40612937 14.73811376 16.45287022 11.68457031 16.50415039 C10.28550949 16.50599335 10.28550949 16.50599335 8.85818481 16.50787354 C1.03844302 16.67916687 -5.83970002 18.46236104 -12.01074219 23.42602539 C-18.46395726 31.58744445 -19.99732954 38.79841012 -19.13574219 49.11352539 C-16.8109688 57.78088705 -11.44093282 62.52512025 -4.00292969 67.09790039 C-0.28928263 69.11787578 2.90680054 69.29332726 7.06347656 69.42993164 C8.15233154 69.46803955 9.24118652 69.50614746 10.36303711 69.54541016 C11.74531494 69.58851318 13.12759277 69.63161621 14.55175781 69.67602539 C18.94488281 69.82040039 23.33800781 69.96477539 27.86425781 70.11352539 C27.86425781 57.24352539 27.86425781 44.37352539 27.86425781 31.11352539 C33.80425781 31.11352539 39.74425781 31.11352539 45.86425781 31.11352539 C45.86425781 49.26352539 45.86425781 67.41352539 45.86425781 86.11352539 C33.86050781 86.23727539 33.86050781 86.23727539 21.61425781 86.36352539 C19.1131543 86.39994141 16.61205078 86.43635742 14.03515625 86.47387695 C12.01465712 86.48557808 9.99414843 86.49576651 7.97363281 86.50415039 C6.95543457 86.52461426 5.93723633 86.54507813 4.88818359 86.56616211 C-8.3449415 86.57247261 -19.06902948 81.74175994 -28.82324219 72.98852539 C-38.31506527 63.09844399 -39.52599123 51.73533757 -39.34667969 38.83227539 C-39.04555041 29.37458558 -35.94247 22.51019058 -30.13574219 15.11352539 C-29.65621094 14.49606445 -29.17667969 13.87860352 -28.68261719 13.24243164 C-21.86536527 5.51276974 -10.30757453 -0.0255138 0 0 Z " fill="#1C4786" transform="translate(274.1357421875,177.886474609375)"/>
<path d="M0 0 C22.44 0 44.88 0 68 0 C68 4.95 68 9.9 68 15 C51.83 15 35.66 15 19 15 C19 21.6 19 28.2 19 35 C32.86 35 46.72 35 61 35 C61 40.28 61 45.56 61 51 C47.14 51 33.28 51 19 51 C19 57.6 19 64.2 19 71 C35.17 71 51.34 71 68 71 C68 75.95 68 80.9 68 86 C45.56 86 23.12 86 0 86 C0 57.62 0 29.24 0 0 Z " fill="#1C4886" transform="translate(636,293)"/>
<path d="M0 0 C22.44 0 44.88 0 68 0 C68 4.95 68 9.9 68 15 C51.83 15 35.66 15 19 15 C19 21.6 19 28.2 19 35 C32.86 35 46.72 35 61 35 C61 40.28 61 45.56 61 51 C47.14 51 33.28 51 19 51 C19 57.6 19 64.2 19 71 C35.17 71 51.34 71 68 71 C68 75.95 68 80.9 68 86 C45.56 86 23.12 86 0 86 C0 57.62 0 29.24 0 0 Z " fill="#1C4885" transform="translate(730,178)"/>
<path d="M0 0 C6.27 0 12.54 0 19 0 C19.33 3.3 19.66 6.6 20 10 C20.47638916 9.28827637 20.95277832 8.57655273 21.44360352 7.84326172 C24.65621584 3.62308254 27.13722439 0.48827178 32.39404297 -0.88964844 C36.28325918 -1.12909549 40.04620068 -1.07023489 43.9375 -0.875 C45.89719727 -0.85759766 45.89719727 -0.85759766 47.89648438 -0.83984375 C58.38945238 -0.57580329 67.49632734 1.31766846 75 9 C81.75301639 18.37918943 81.28847339 29.84565244 81.1953125 40.98046875 C81.1924826 42.27447098 81.18965271 43.56847321 81.18673706 44.90168762 C81.17918596 48.30303003 81.15961345 51.70419523 81.1373291 55.10546875 C81.11668436 58.59177251 81.10769597 62.07810555 81.09765625 65.56445312 C81.07635727 72.37638118 81.04124732 79.18816378 81 86 C74.73 86 68.46 86 62 86 C61.98541748 84.24937256 61.97083496 82.49874512 61.95581055 80.69506836 C61.90402893 74.89146631 61.83870814 69.08810019 61.76428509 63.28475094 C61.71968094 59.76838947 61.68040362 56.2521412 61.65356445 52.7355957 C61.62242357 48.686719 61.56763901 44.63845462 61.51171875 40.58984375 C61.50532883 39.33541977 61.4989389 38.08099579 61.49235535 36.78855896 C61.3405276 26.63941914 61.3405276 26.63941914 56.31542969 18.09448242 C52.93049763 16.49445602 49.62656764 16.51947693 45.953125 16.48828125 C45.26911621 16.47164429 44.58510742 16.45500732 43.88037109 16.43786621 C41.33722345 16.3802467 38.79355454 16.34785893 36.25 16.3125 C30.5575 16.209375 24.865 16.10625 19 16 C19 39.1 19 62.2 19 86 C12.73 86 6.46 86 0 86 C0 57.62 0 29.24 0 0 Z " fill="#1C4785" transform="translate(533,293)"/>
<path d="M0 0 C6.27 0 12.54 0 19 0 C19.33 3.3 19.66 6.6 20 10 C20.48291504 9.28827637 20.96583008 8.57655273 21.46337891 7.84326172 C24.63910335 3.70154848 27.1218642 0.50876649 32.28417969 -0.88964844 C36.02408925 -1.12924121 39.63294178 -1.07053788 43.375 -0.875 C45.25058594 -0.85759766 45.25058594 -0.85759766 47.1640625 -0.83984375 C56.48983756 -0.59596888 65.76762303 0.67766877 72.9375 7.125 C80.33736236 15.80570686 80.55938048 25.2205251 80.390625 36.1953125 C80.38314788 37.63832813 80.37746192 39.08135405 80.37347412 40.52438354 C80.35833311 44.28927541 80.31915446 48.05353221 80.2746582 51.81817627 C80.23345339 55.67296767 80.21540978 59.5278635 80.1953125 63.3828125 C80.15264575 70.92219557 80.08239424 78.46092724 80 86 C73.73 86 67.46 86 61 86 C60.98541748 84.14802002 60.97083496 82.29604004 60.95581055 80.38793945 C60.90411219 74.26101737 60.83881369 68.13435762 60.76428509 62.00767231 C60.71960518 58.29395541 60.68034414 54.58034761 60.65356445 50.86645508 C60.62750722 47.28063327 60.58708857 43.69523181 60.53681374 40.10967064 C60.52016121 38.74343288 60.50863685 37.37712244 60.50238609 36.0107975 C60.49272839 34.09342502 60.4629542 32.17618611 60.43237305 30.2590332 C60.41571846 28.62355278 60.41571846 28.62355278 60.39872742 26.95503235 C59.9403421 23.55786578 59.08762276 21.70656795 57 19 C45.63533742 13.31766871 31.70058689 16.37354667 19 16 C19 39.1 19 62.2 19 86 C12.73 86 6.46 86 0 86 C0 57.62 0 29.24 0 0 Z " fill="#1D4786" transform="translate(139,178)"/>
<path d="M0 0 C8.745 -0.061875 17.49 -0.12375 26.5 -0.1875 C30.61952148 -0.22846802 30.61952148 -0.22846802 34.82226562 -0.27026367 C37.01692262 -0.27903156 39.21158452 -0.28667478 41.40625 -0.29296875 C42.5312793 -0.30831665 43.65630859 -0.32366455 44.81542969 -0.33947754 C54.38471964 -0.34264478 61.1338059 1.37225849 68.2421875 8.0625 C74.36801341 14.81452145 76.24951043 23.90362849 75.8828125 32.86328125 C74.68053579 41.53684895 70.94738606 48.97872244 64.0625 54.5 C57.13297808 59.5610521 48.81779043 59.56527756 40.5625 59.8125 C38.9218457 59.9372168 38.9218457 59.9372168 37.24804688 60.06445312 C34.00390625 60.14453125 34.00390625 60.14453125 28 59 C24.04 53.555 24.04 53.555 20 48 C19.67 60.54 19.34 73.08 19 86 C12.73 86 6.46 86 0 86 C0 57.62 0 29.24 0 0 Z M19 16 C19 24.58 19 33.16 19 42 C23.32439848 42.09206289 27.64537132 42.17161666 31.9699707 42.21972656 C33.43948921 42.23978825 34.90892841 42.26704478 36.37817383 42.30175781 C38.49580487 42.35052141 40.61237687 42.37302161 42.73046875 42.390625 C44.00301514 42.41157227 45.27556152 42.43251953 46.58666992 42.45410156 C50.58008105 41.92282736 52.165832 40.79804529 55 38 C57.66800712 33.90905574 57.66589186 29.73523102 57 25 C54.74648037 20.49296073 52.49683458 18.188641 48 16 C44.71436618 15.58930422 44.71436618 15.58930422 41.16796875 15.70703125 C39.87568359 15.71669922 38.58339844 15.72636719 37.25195312 15.73632812 C35.8971293 15.76139015 34.54231159 15.78678494 33.1875 15.8125 C31.81316555 15.82755987 30.43881532 15.84124599 29.06445312 15.85351562 C25.70946596 15.88883128 22.35468262 15.94263684 19 16 Z " fill="#1C4786" transform="translate(441,178)"/>
<path d="M0 0 C0.83265381 0.00523682 1.66530762 0.01047363 2.52319336 0.01586914 C3.42231445 0.0190918 4.32143555 0.02231445 5.24780273 0.02563477 C6.66609375 0.03820312 6.66609375 0.03820312 8.11303711 0.05102539 C9.06243164 0.05553711 10.01182617 0.06004883 10.98999023 0.06469727 C13.34356776 0.07652429 15.69702188 0.09300514 18.05053711 0.11352539 C23.51661362 10.99639337 28.91607991 21.90945861 34.23803711 32.86352539 C34.60027374 33.60845245 34.96251038 34.35337952 35.33572388 35.12088013 C42.02424733 48.88605208 48.52328618 62.73224311 54.89990234 76.64453125 C55.6257464 78.20202349 56.38914735 79.74304925 57.203125 81.25634766 C58.05053711 83.11352539 58.05053711 83.11352539 58.05053711 86.11352539 C51.12053711 86.11352539 44.19053711 86.11352539 37.05053711 86.11352539 C35.37945461 82.323749 33.71349413 78.53186518 32.05053711 74.73852539 C31.57358398 73.65829102 31.09663086 72.57805664 30.60522461 71.46508789 C30.15405273 70.43383789 29.70288086 69.40258789 29.23803711 68.34008789 C28.8190918 67.3869873 28.40014648 66.43388672 27.96850586 65.4519043 C27.05053711 63.11352539 27.05053711 63.11352539 27.05053711 61.11352539 C14.51053711 61.11352539 1.97053711 61.11352539 -10.94946289 61.11352539 C-11.93946289 64.08352539 -12.92946289 67.05352539 -13.94946289 70.11352539 C-14.53007373 71.58430045 -15.1303573 73.04798642 -15.77368164 74.49243164 C-16.18880005 75.43324585 -16.18880005 75.43324585 -16.61230469 76.39306641 C-16.95044189 77.14644287 -17.2885791 77.89981934 -17.63696289 78.67602539 C-19.27665039 82.35758789 -19.27665039 82.35758789 -20.94946289 86.11352539 C-27.87946289 86.11352539 -34.80946289 86.11352539 -41.94946289 86.11352539 C-41.06278626 81.68014224 -39.99747862 78.81719231 -38.02758789 74.82836914 C-37.73138046 74.22347153 -37.43517303 73.61857391 -37.12998962 72.99534607 C-36.49127516 71.691904 -35.85007303 70.38967856 -35.20663452 69.08856201 C-33.48440658 65.6044463 -31.78185092 62.11074142 -30.07836914 58.61743164 C-29.73062943 57.90522461 -29.38288971 57.19301758 -29.02461243 56.45922852 C-25.63918658 49.50972664 -22.37499274 42.50784584 -19.13696289 35.48852539 C-15.19322789 26.95060461 -11.23301282 18.42196071 -7.19946289 9.92602539 C-6.78075928 9.04027832 -6.36205566 8.15453125 -5.93066406 7.24194336 C-5.55014893 6.44288574 -5.16963379 5.64382813 -4.77758789 4.82055664 C-4.44662109 4.12422119 -4.1156543 3.42788574 -3.7746582 2.71044922 C-2.44771574 0.14254074 -2.44771574 0.14254074 0 0 Z M7.05053711 16.11352539 C5.33715878 20.34760526 3.62828084 24.58346231 1.92358398 28.82104492 C1.34279348 30.26295156 0.7607671 31.70436102 0.17749023 33.14526367 C-0.659736 35.21412374 -1.49252998 37.28471958 -2.32446289 39.35571289 C-2.58694824 40.0016037 -2.84943359 40.64749451 -3.11987305 41.31295776 C-4.49968235 44.60972496 -4.49968235 44.60972496 -4.94946289 48.11352539 C3.63053711 48.11352539 12.21053711 48.11352539 21.05053711 48.11352539 C18.54956014 40.59697152 18.54956014 40.59697152 15.78881836 33.20336914 C15.39243164 32.19467773 14.99604492 31.18598633 14.58764648 30.14672852 C13.98146484 28.61435547 13.98146484 28.61435547 13.36303711 27.05102539 C12.94731445 25.99463867 12.5315918 24.93825195 12.10327148 23.84985352 C11.08777143 21.27024992 10.07015426 18.69150378 9.05053711 16.11352539 C8.39053711 16.11352539 7.73053711 16.11352539 7.05053711 16.11352539 Z " fill="#1C4786" transform="translate(205.949462890625,292.886474609375)"/>
<path d="M0 0 C6.93 0 13.86 0 21 0 C22.4540625 3.10728516 22.4540625 3.10728516 23.9375 6.27734375 C31.03218483 21.41803843 38.18552362 36.52660527 45.5 51.5625 C46.82306198 54.28378353 48.14596544 57.0051441 49.46875 59.7265625 C49.77756104 60.36188904 50.08637207 60.99721558 50.40454102 61.65179443 C52.95627713 66.90428447 55.49559232 72.16227069 58 77.4375 C58.32033203 78.10531494 58.64066406 78.77312988 58.97070312 79.46118164 C61 83.76402081 61 83.76402081 61 86 C54.07 86 47.14 86 40 86 C38.9275 83.710625 37.855 81.42125 36.75 79.0625 C36.4209668 78.36133057 36.09193359 77.66016113 35.75292969 76.93774414 C33.43680703 71.98366391 31.22226847 67.00010406 29 62 C16.79 62 4.58 62 -8 62 C-11.24857248 69.52317084 -11.24857248 69.52317084 -14.49194336 77.04858398 C-14.89550049 77.98001221 -15.29905762 78.91144043 -15.71484375 79.87109375 C-16.12855225 80.82943115 -16.54226074 81.78776855 -16.96850586 82.77514648 C-18 85 -18 85 -19 86 C-20.56172745 86.08685603 -22.12729344 86.10702219 -23.69140625 86.09765625 C-24.63564453 86.09443359 -25.57988281 86.09121094 -26.55273438 86.08789062 C-27.54595703 86.07951172 -28.53917969 86.07113281 -29.5625 86.0625 C-30.55958984 86.05798828 -31.55667969 86.05347656 -32.58398438 86.04882812 C-35.05604849 86.03700007 -37.52799518 86.02051849 -40 86 C-38.46096542 80.96374646 -36.37763243 76.34643178 -34.10546875 71.61328125 C-33.72152954 70.80652954 -33.33759033 69.99977783 -32.9420166 69.1685791 C-31.69388269 66.548263 -30.44076431 63.93036563 -29.1875 61.3125 C-28.32436215 59.50297397 -27.46148944 57.69332145 -26.59887695 55.88354492 C-21.15905759 44.47890549 -15.69579274 33.08526681 -10.1862793 21.71411133 C-6.70348212 14.51513674 -3.33599785 7.26823755 0 0 Z M10 15 C8.14639021 19.53808271 6.29503581 24.0770762 4.44580078 28.61694336 C3.81589263 30.16244593 3.18535992 31.70769408 2.55419922 33.25268555 C1.64908641 35.4685779 0.74619576 37.68536411 -0.15625 39.90234375 C-0.44060913 40.5971434 -0.72496826 41.29194305 -1.01794434 42.00779724 C-2.40281179 44.91364409 -2.40281179 44.91364409 -3 48 C5.58 48 14.16 48 23 48 C22.1532045 43.76602248 21.07723694 40.36683781 19.49609375 36.38671875 C19.2533522 35.77230423 19.01061066 35.15788971 18.76051331 34.52485657 C17.9901095 32.57748441 17.21390549 30.63248603 16.4375 28.6875 C15.91172353 27.36148105 15.38632887 26.03531064 14.86132812 24.70898438 C13.5786321 21.47089192 12.29072651 18.23490115 11 15 C10.67 15 10.34 15 10 15 Z " fill="#1C4786" transform="translate(370,178)"/>
<path d="M0 0 C6.27 0 12.54 0 19 0 C19 23.1 19 46.2 19 70 C33.19 70 47.38 70 62 70 C62 75.28 62 80.56 62 86 C41.54 86 21.08 86 0 86 C0 57.62 0 29.24 0 0 Z " fill="#1C4786" transform="translate(418,293)"/>
<path d="M0 0 C6.27 0 12.54 0 19 0 C19 28.38 19 56.76 19 86 C12.73 86 6.46 86 0 86 C0 57.62 0 29.24 0 0 Z " fill="#1D4785" transform="translate(276,293)"/>
<path d="M0 0 C6.27 0 12.54 0 19 0 C19 28.38 19 56.76 19 86 C12.73 86 6.46 86 0 86 C0 57.62 0 29.24 0 0 Z " fill="#1C4786" transform="translate(97,178)"/>
<path d="M0 0 C5.94 0 11.88 0 18 0 C18 28.38 18 56.76 18 86 C12.06 86 6.12 86 0 86 C0 57.62 0 29.24 0 0 Z " fill="#1C4885" transform="translate(493,293)"/>
</svg>
