<?xml version="1.0" encoding="UTF-8"?>
<svg width="161px" height="51px" viewBox="0 0 161 51" version="1.1" xmlns="http://www.w3.org/2000/svg" xmlns:xlink="http://www.w3.org/1999/xlink">
    <title>zolve_logo</title>
    <g id="Page-1" stroke="none" stroke-width="1" fill="none" fill-rule="evenodd">
        <g id="Landing/V4.2" transform="translate(-162.000000, -78.000000)">
            <g id="zolve_logo" transform="translate(162.000000, 78.000000)">
                <g id="Page-10" transform="translate(39.000000, 0.000000)" fill="#2C2C2C">
                    <path d="M114.957447,37.2280851 L98.4714894,37.2280851 C99.9089362,39.1353191 102.194043,40.3710638 104.76766,40.3710638 C105.617872,40.3710638 106.166809,40.5855319 110.124255,39.3191489 C115.37617,37.6391489 117.477447,40.9991489 117.686809,43.5217021 C117.83234,45.252766 116.499574,46.7821277 115.179574,47.6553191 C112.225532,49.613617 106.68766,50.2442553 104.76766,50.2442553 C94.8204255,50.2442553 86.7855319,42.0612766 87.0204255,32.0629787 C87.2476596,22.4757447 95.1957447,14.7319149 104.785532,14.7395688 C113.938723,14.7497872 120.628085,21.252766 121.373617,29.5429787 C121.835745,34.7029787 117.109787,37.2280851 114.957447,37.2280851 Z M112.723404,27.852766 C110.811064,25.5957447 107.956596,24.1634043 104.76766,24.1634043 C101.578723,24.1634043 98.7268085,25.5957447 96.8119149,27.852766 L112.723404,27.852766 Z M35.7574468,32.2825532 C35.7574468,42.0868085 27.8093617,50.0348936 18.0076596,50.0348936 C8.20340426,50.0348936 0.255319149,42.0868085 0.255319149,32.2825532 C0.255319149,22.4782979 8.20340426,14.5302128 18.0076596,14.5302128 C27.8093617,14.5302128 35.7574468,22.4782979 35.7574468,32.2825532 Z M25.8842553,32.2825532 C25.8842553,27.9319149 22.3582979,24.4034043 18.0076596,24.4034043 C13.6544681,24.4034043 10.1285106,27.9319149 10.1285106,32.2825532 C10.1285106,36.6331915 13.6544681,40.1591489 18.0076596,40.1591489 C22.3582979,40.1591489 25.8842553,36.6331915 25.8842553,32.2825532 Z M44.1625532,0.0612765957 C46.8408511,0.0612765957 49.013617,2.23148936 49.013617,4.90978723 L49.013617,45.1889362 C49.0110638,47.867234 46.8382979,50.0348936 44.16,50.0348936 C41.4842553,50.0323404 39.3165957,47.8646809 39.3140426,45.1889362 L39.3140426,4.90978723 C39.3140426,2.23148936 41.4842553,0.0612765957 44.1625532,0.0612765957 Z M85.0391489,19.427234 C84.9957447,20.7293617 84.6765957,22.0059574 84.1021277,23.1702128 L75.4212766,45.2093617 C74.1829787,48.467234 72.3651064,49.9659574 69.7914894,50.0323404 C67.2153191,49.9659574 65.3974468,48.467234 64.1591489,45.2093617 L55.4757447,23.1702128 C54.9038298,22.0059574 54.5846809,20.7293617 54.5412766,19.427234 C54.6255319,16.68 56.8519149,14.5046809 59.5506383,14.5299903 C62.2238298,14.5299903 63.5591489,15.8221277 64.8280851,19.7004255 L69.7914894,32.9234043 L74.7523404,19.7004255 C76.0212766,15.8221277 77.3565957,14.5299903 80.0297872,14.5299903 C82.7285106,14.5046809 84.9523404,16.68 85.0391489,19.427234 Z" id="Path-331"></path>
                </g>
                <g id="Page-10" transform="translate(0.000000, 2.000000)" fill-rule="nonzero">
                    <g id="Folder-3">
                        <path d="M0.280830016,43.3071625 C0.280830016,45.8925927 2.38464014,48.0095128 4.96455029,48.0343528 C6.42666037,48.0150328 7.86738046,47.3464227 8.78301051,46.0768227 L14.1877808,38.5785922 L5.00940029,38.5785922 C2.40879014,38.5785922 0.280830016,40.7065524 0.280830016,43.3071625 Z" id="Path-311" fill="#CC0000"></path>
                        <path d="M1.11987006,40.6244424 C2.14383012,39.3210323 3.5052002,38.5785922 4.91625028,38.5785922 L5.00940029,38.5785922 L14.1877808,38.5785922 L18.7521311,32.2471519 L12.9409507,24.1962314 C7.55205044,31.7124018 2.36877014,38.9415323 1.11987006,40.6244424 Z M36.2677821,7.94811046 C35.394242,8.93481052 34.119812,9.55995055 32.7060019,9.55995055 L32.6432119,9.55995055 L23.4489614,9.55995055 C22.1241613,11.3981107 20.4964512,13.6626908 18.7272911,16.1280609 L24.5536514,24.1989914 L36.2677821,7.94811046 Z" id="Path-312" fill="#FF6633"></path>
                        <path d="M18.7272911,16.1280609 C16.891201,18.6865811 14.9026209,21.4603812 12.9409507,24.1962314 L18.7521311,32.2471519 L24.5536514,24.1989914 L18.7272911,16.1280609 Z" id="Path-313" fill="#FF5319"></path>
                        <path d="M32.7066919,9.56064055 C34.119812,9.56064055 35.394242,8.93481052 36.2684721,7.94811046 C37.0129821,7.10769041 37.4670022,6.00438035 37.4670022,4.79964028 C37.4670022,2.19765013 35.351462,0.0669300039 32.7556819,0.0400200023 C31.2763218,0.0427800025 29.8169717,0.726570042 28.8909917,2.01066012 C28.8909917,2.01066012 25.1560215,7.19187042 23.4489614,9.56064055 L32.6432119,9.56064055 L32.7066919,9.56064055 Z" id="Path-314" fill="#CC0000"></path>
                        <path d="M13.9869908,9.56064055 L13.0320308,9.56064055 C13.0513508,10.9206306 12.4945207,12.2716507 11.4257107,13.2155708 C11.3084107,13.3176908 11.1855906,13.4156708 11.0565606,13.5074408 C9.03279052,14.9488509 6.24174036,14.5741808 4.65681027,12.7173907 L12.9409507,24.1962314 C14.9026209,21.4603812 16.891201,18.6865811 18.7272911,16.1280609 L13.9869908,9.56064055 Z" id="Path-315" fill="#CCCCCC"></path>
                        <path d="M11.0565606,13.5074408 C11.1855906,13.4156708 11.3084107,13.3176908 11.4257107,13.2155708 C12.4945207,12.2716507 13.0513508,10.9206306 13.0320308,9.55995055 L2.38947014,9.55995055 L4.39806025,12.3875707 C4.48017026,12.5028007 4.56711026,12.6118207 4.65681027,12.7173907 C6.24174036,14.5741808 9.03279052,14.9481609 11.0565606,13.5074408 Z" id="Path-316" fill="#CC0000"></path>
                        <path d="M32.6432119,0.069000004 L4.99215029,0.069000004 C4.99974029,0.0710700041 5.00733029,0.0745200043 5.01492029,0.0765900044 C5.38062031,0.0945300055 5.74356033,0.152490009 6.09615035,0.251160015 C6.9455404,0.489210028 7.73352045,0.957030055 8.34969048,1.63875009 L12.1543507,6.9096604 C12.3185707,7.13667041 12.4579507,7.37403043 12.5752507,7.61760044 C12.8740207,8.23653048 13.0230608,8.89962052 13.0327208,9.56064055 L13.9869908,9.56064055 L23.4489614,9.56064055 C25.1449815,7.19946042 28.8537317,2.03481012 28.8537317,2.03481012 C29.7735017,0.754170044 31.2231918,0.0724500042 32.6922019,0.0703800041 C32.6756419,0.069690004 32.6597719,0.069000004 32.6432119,0.069000004 Z" id="Path-317" fill="#DE001C"></path>
                        <path d="M12.5752507,7.61760044 C12.4579507,7.37403043 12.3185707,7.13667041 12.1543507,6.9096604 L8.34969048,1.63875009 C7.73352045,0.957030055 6.9455404,0.489210028 6.09615035,0.251160015 C5.74356033,0.152490009 5.38062031,0.0945300055 5.01492029,0.0765900044 C4.72374027,0.0621000036 4.42980026,0.0724500042 4.13793024,0.110400006 C3.3948002,0.208380012 2.66478015,0.478170028 2.01480012,0.934260054 C-0.124200007,2.43363014 -0.628590036,5.38338031 0.894930052,7.48926043 L1.7767501,8.7105605 L2.38947014,9.56064055 L13.0327208,9.56064055 C13.0230608,8.89962052 12.8740207,8.23653048 12.5752507,7.61760044 Z" id="Path-318" fill="#AC0000"></path>
                        <path d="M26.1227115,34.401332 C26.7733815,33.937652 27.5034016,33.6637219 28.2465316,33.5643619 C28.9034117,33.4760419 29.5713317,33.5264119 30.2040617,33.706502 C31.0037718,33.934202 31.7475918,34.368212 32.3465119,34.995422 L24.5536514,24.1996814 L18.7521311,32.2471519 L22.7154913,37.7388622 L23.3033713,38.5785922 L24.1320614,38.5785922 C24.0396014,36.9902121 24.7378814,35.387342 26.1227115,34.401332 Z" id="Path-319" fill="#CCCCCC"></path>
                        <path d="M28.2465316,33.5643619 C27.5027116,33.6630319 26.7733815,33.937652 26.1227115,34.400642 C24.7378814,35.387342 24.0396014,36.9902121 24.1320614,38.5785922 L34.918142,38.5785922 L32.4582919,35.116172 C32.4210319,35.075462 32.3837719,35.034752 32.3458219,34.995422 C31.7475918,34.368212 31.0037718,33.934202 30.2040617,33.706502 C29.5713317,33.5264119 28.9034117,33.4767319 28.2465316,33.5643619 Z" id="Path-320" fill="#CC0000"></path>
                        <path d="M28.7654117,46.3203927 C28.6881317,46.2051627 28.5887717,46.1058027 28.5066616,45.9905727 L25.8846615,42.2997624 L25.0028414,41.0591424 C24.8648414,40.8652524 24.7440914,40.6644624 24.6392114,40.4581523 C24.6350714,40.4498723 24.6316214,40.4415923 24.6274814,40.4340023 C24.6274814,40.4333123 24.6274814,40.4333123 24.6274814,40.4326223 C24.4425614,40.0648523 24.3100814,39.6812123 24.2272814,39.2899823 C24.2252114,39.2796323 24.2238314,39.2692823 24.2217614,39.2589323 C24.2079614,39.1906223 24.1948514,39.1230023 24.1838114,39.0546923 C24.1789814,39.0257123 24.1762214,38.9960423 24.1720814,38.9670623 C24.1651814,38.9173823 24.1575914,38.8677022 24.1520714,38.8173322 C24.1431014,38.7379822 24.1368914,38.6586322 24.1320614,38.5785922 L23.3199313,38.5785922 L23.3033713,38.5785922 L14.1877808,38.5785922 L8.78301051,46.0768227 C7.86738046,47.3464227 6.42666037,48.0253828 4.96455029,48.0343528 C4.97973029,48.0343528 4.99422029,48.0350428 5.00940029,48.0350428 L31.3805118,48.0350428 C30.2344217,47.8494328 29.3477717,47.1842727 28.7654117,46.3203927 Z" id="Path-321" fill="#DE001C"></path>
                        <path d="M36.6838521,41.1840324 C36.5665521,40.9363224 36.4271721,40.6948224 36.2622621,40.4643623 L34.918142,38.5710022 C34.918142,38.5710022 24.1327514,38.5710022 24.1320614,38.5710022 C24.0747914,38.5827322 24.2383214,39.2858423 24.2507414,39.3438023 C24.3307814,39.7184723 24.4018514,40.1069423 24.6274814,40.4271023 C24.6281714,40.4277923 28.6977917,46.2037827 28.6977917,46.2037827 C29.0848817,46.7406027 29.5671917,47.1725427 30.1053917,47.4954627 C30.5049018,47.7342028 30.9382218,47.9701828 31.4053518,48.0329728 C32.3644519,48.1626928 34.017002,48.0854128 35.164472,47.1076827 C35.294192,47.0152227 35.416322,46.9179327 35.5336221,46.8158127 C37.1302821,45.4047626 37.5870622,43.0870525 36.6838521,41.1840324 Z" id="Path-322" fill="#AC0000"></path>
                        <path d="M24.1630764,38.8173322 C24.1710764,38.8677022 24.1820764,38.9173823 24.1920764,38.9670623 C24.1820764,38.9173823 24.1710764,38.8677022 24.1630764,38.8173322 Z" id="Path-328" fill="#AC0000"></path>
                    </g>
                </g>
            </g>
        </g>
    </g>
</svg>